<mxfile host="65bd71144e">
    <diagram id="iu41YSKFhQqd8PUf1_AV" name="Page-1">
        <mxGraphModel dx="1586" dy="1499" grid="1" gridSize="10" guides="1" tooltips="1" connect="1" arrows="1" fold="1" page="1" pageScale="1" pageWidth="850" pageHeight="1100" math="0" shadow="0">
            <root>
                <mxCell id="0"/>
                <mxCell id="1" parent="0"/>
                <mxCell id="2" value="" style="fillColor=#F6F6F6;strokeColor=none;shadow=0;gradientColor=none;fontSize=14;align=left;spacing=10;fontColor=#717171;9E9E9E;verticalAlign=top;spacingTop=-4;fontStyle=0;spacingLeft=40;html=1;" parent="1" vertex="1">
                    <mxGeometry x="-850" y="-40" width="850" height="510" as="geometry"/>
                </mxCell>
                <mxCell id="3" value="" style="group;fontStyle=1" parent="1" connectable="0" vertex="1">
                    <mxGeometry x="-600" y="-42.75" width="179.00000000000003" height="330" as="geometry"/>
                </mxCell>
                <mxCell id="80" value="" style="group" parent="3" vertex="1" connectable="0">
                    <mxGeometry x="-240" y="130" width="180" height="190" as="geometry"/>
                </mxCell>
                <mxCell id="87" value="" style="group" parent="80" vertex="1" connectable="0">
                    <mxGeometry y="-3" width="160" height="60" as="geometry"/>
                </mxCell>
                <mxCell id="8" value="Ingest Data" style="rounded=1;absoluteArcSize=1;arcSize=2;html=1;strokeColor=#4284F3;gradientColor=none;shadow=0;dashed=1;fontSize=12;fontColor=#9E9E9E;align=left;verticalAlign=top;spacing=10;spacingTop=-4;fillColor=none;dashPattern=1 2;strokeWidth=2;" parent="1" vertex="1">
                    <mxGeometry x="-580" y="30" width="190" height="280" as="geometry"/>
                </mxCell>
                <mxCell id="14" value="sink" style="rounded=1;absoluteArcSize=1;arcSize=2;html=1;strokeColor=#4284F3;gradientColor=none;shadow=0;dashed=1;fontSize=12;fontColor=#9E9E9E;align=left;verticalAlign=top;spacing=10;spacingTop=-4;fillColor=none;dashPattern=1 2;strokeWidth=2;" parent="1" vertex="1">
                    <mxGeometry x="-370.25" y="30" width="190" height="280" as="geometry"/>
                </mxCell>
                <mxCell id="16" value="" style="group" parent="1" connectable="0" vertex="1">
                    <mxGeometry x="-330" y="180" width="160" height="60" as="geometry"/>
                </mxCell>
                <mxCell id="19" value="&lt;font face=&quot;Georgia&quot;&gt;&lt;span style=&quot;font-size: 11px;&quot;&gt;&lt;b&gt;storage&lt;/b&gt;&lt;/span&gt;&lt;/font&gt;" style="text;strokeColor=none;fillColor=none;html=1;align=center;verticalAlign=middle;whiteSpace=wrap;rounded=0;fontSize=20;fontFamily=Architects Daughter;" parent="16" vertex="1">
                    <mxGeometry x="50.000000000000014" y="-10" width="60" height="30" as="geometry"/>
                </mxCell>
                <mxCell id="81" value="" style="group" parent="16" vertex="1" connectable="0">
                    <mxGeometry x="-25" width="160" height="60" as="geometry"/>
                </mxCell>
                <mxCell id="17" value="" style="strokeColor=#dddddd;fillColor=#ffffff;shadow=1;strokeWidth=1;rounded=1;absoluteArcSize=1;arcSize=2;fontSize=10;fontColor=#9E9E9E;align=center;html=1;" parent="81" vertex="1">
                    <mxGeometry width="160" height="60" as="geometry"/>
                </mxCell>
                <mxCell id="20" value="&lt;font color=&quot;#b3b3b3&quot; style=&quot;font-size: 11px;&quot; face=&quot;Georgia&quot;&gt;cloud storage&lt;br&gt;temp storage&lt;br&gt;&lt;/font&gt;" style="text;strokeColor=none;fillColor=none;html=1;align=center;verticalAlign=middle;whiteSpace=wrap;rounded=0;fontSize=20;fontFamily=Architects Daughter;" parent="81" vertex="1">
                    <mxGeometry x="60" y="19.67" width="75" height="30" as="geometry"/>
                </mxCell>
                <mxCell id="74" value="" style="shape=image;verticalLabelPosition=bottom;labelBackgroundColor=default;verticalAlign=top;aspect=fixed;imageAspect=0;image=data:image/png,iVBORw0KGgoAAAANSUhEUgAAAgAAAAIACAMAAADDpiTIAAABhlBMVEUAAACFsfd2pveRufivyvmEr/hOjfV0pviCsvdmnfaPt/iuy/qBrvdChfRFh/R/rPhPjfWArfhZlPVjmvZJivRTkfVemPZOjfVYlPVjm/ZJifRUkPVel/VEh/ROjvVim/ZTkPVlnfZdl/VEhvRimvZIifREh/VOjPVYk/ZIivS1z/rK3fzb6P3n8P70+P73+v////9EhvW0z/rQ4fzu9P5NjPS20Pr8/f9Xk/awzPrT4/z7/f+60/vv9f7H2/z7/P9Sj/XO4Pz+/v9cl/VmnPZOjfRHifW20PtSkPVdlvVDhvRXk/VIifXo8P7o8f75+//9/v9hmvZHiPVRj/Vcl/ZlnPZWk/VhmvVclvZknPZMi/RWkvVblvZMi/VgmfVGiPRDhfRhmfVHiPRRj/RknPVgmfZGh/RQjvRChvRLi/VVkvVfmfZblfZkm/VQjvValfVfmPZkm/ZKi/VPjvVjnPZLivVVkfVKivRUkfVFiPRZlfWCr/eGs/h8q/iUuvmvy/qTufmEsPiWcXuNAAAAgnRSTlMAXOvPuNL6mHr///////+w/6//////////////////////////////////////////////////////////////////////////////////////////////////////////////////////////////////////////////Ss6rj6huTLo7GgAACFRJREFUeAHs0oMRAwAABLDato39N+wI9emTGVJ4CwAAAAAAAAAAAAAAAAAAAAAAAAAAAAAAAAAAAAAAAAAAAAAAAAAAAAAAAMXSy8oVfq5ae1m98A+N5sta7Z+j031Vry9AdIDBUIDoAKPsAAKMowMIMGlGBxBgmh1AgFl0AAF6zegAAsyzAwiwyA4gwDI6gACrZnQAAdbZAQTYRAcQYNuMDiDALjuAACMBsgPsBYgOMGkKEB3gIEB2gI0A0QG2RwGiA8ybAkQHWAiQHWAvQHSASVOA6AAHAbIDnASIDnA+ChAdYN4UIDrAQoDsABcBogNcmwJEBzgIkB3gJEB0gNtRgOgA9we7dHEdMRQEAfD8kzCzBb0sXmbMPxrfzdKM3ix0xVDuogMwwAsDXHaA64sOwACvjgEuOsANA1x2gDsGOA5v754fhPgiDHzv/a22AI1bxwD2mq02ftVuNesJ0HEMYK7r9fCnntetI0DEANbiJMW/pEmsH+CaAYxlOf4tz7QDPDoGsFX0UUK/UA4wYABbwxFKGQ11A4wZwNQQpQ01AzQmDGCpGKG0UaEYYOoYwFDWRwX9TC9AxACG4hyV5LFagAcGMJSgokQrwMwxgJ15iorSuVKABQMY8lCZpxRgyQB2mj1U1muqBFjdMoCdFgRaKgE6jgHstCHQVgmwZgA7bxB50wjwwAB23iHyrhBg4xjAjgcRTyHAggEMbSGyVQgwPukAO2PSAAFEAnmA1e1JB4AxaYA9RPbyAB3HAIYBDhA5yAOsGcAyAIQ+2LuL7bqOKAzC4aw9MTMzCtpsoZnZFl/JYmYzhd488+CVztFqS1X1DN+w+9/FATxDAxDA80ADEMALNgABtKEBCOB+OxqAAC4EGoAAOtgABNCJBiCA24EGIICrbAAC6EIDEMDhbjQAAfQEGoAAKmwAAuhEAxDA7UAD8EHICzYAn4T1rgEANZlbzY9C77evfgAF8ll4X6AB+DGkwgbg17CXaAB+Du0PNAC/h79gA3AgogsNwImYgXY0AEei+gINwJm4ChuAQ5GDaABOxQ4FGoBj0cNsAM7F96IBeDBiYAQNwJMxfYEG4NGoChuAZ+NG0QA8HDkWaACejh1nA/B4dC8agOfjJ0YEAOrvACYDDUAAU2wAAphGAxBAf6ABCGCcDUAAM2gAAhiYRQMQwGSgAQhgig1AAKNoAALoDzQAAcyxAQhgHg1AAAPdaAACmAw0AAFMsQEIYAENQADrAg1AAHNsAAKYRwMQwMAiGoAAXgUagACm2AAEMI0GIICxQAMQwGs2AAHMowEIYOANGoAA3gYagADesQEIYBoNQADrAg1AAHNsAAKYZwMQwCIagADeBxqAAD6wAQhgGxqAAD4GGoAANrABCOCTANB93pkZwJdfqu7X36z0fv+l6v74xszMzMzMzMzMzMzMzMzMzMzMzMzMzMzMzMzMzMzMzMzMzMzMzMzMzMzM1mrffld13/9gpffjT1X3s2PRa/Z8fDWtW48GIIANzsWzAWxiAxDAZjQAAWwJNAABbGUDEMA2NAABrAs0AAFsZwMQwA42AAHsRAMQwK5AAxDAbjYAAexBAxDA3kADEMA+NgABbGIDEMB+NAABbAk0AAEcYAMQwB40AAHsPYgGIIDtgQYggB1sAALYjwYggC2BBiCAA2wAAjiEBiCAwwfRAASwPdAABLCDDUAAR9AABHA00AAEcIANQACH0AAEcOwgGoAAjgcagABOsAEIYD8agABOBhqAAA6wAQjgkAC+jk6drqmtq09/q76utub0qRUDcOZgCCB/Z8+dT//Z+XNnVwbAhRBA9i7WXEr/26WaiysB4LIActfQ2JSqqqmxoXwA+wWQueaWVHUtzWUDOBoCyFvrlbSErrSWDOCqAPJ27XpaUtevlQvghgCydi0tuWtlAjhzUwA5a72eltz11hIB3AoBZKz5SlpGV5rLA3BZABlraEnLqqWhNABHBJCxxrTMGssCcDsEkK87TWmZNd0pCcBdAWSsJi27mpIA3BNAvs5eSsvu0tlSANw/KIB8nUsFOlcKgAshgHydTwU6XwqABwLI16lUqFNlADgigHydToU6XQKAhyGAfNWkQtWUAOCuADL2KBXqUQkAbqxqAI8zVxRAXSpUXXEA9w+uagApc0UBPEmFelIcwIUQQEYAT1OhnhYH8EAAOQGkghUH8AwNQADPAw1AAC/YAATQhgYggPvtaAACuBBoAALoYAMQQCcagABuBxqAAK6yAQigCw1AAIe70QAE0BNoAAKosAEIoBMNQAC3QwDoByEvBMB+Eta7BgDUZG41Pwq9376KARTPZ+F9IQD0x5CKANhfw14KAP05tD8EgP4e/kIA7IGILgGgJ2IG2gWAHonqCwGgZ+IqAmAPRQ4KAD0VOxQCQI9FDwuAPRffiwbgwYiBETQAT8b0BRqAR6MqbACejRtFA/Bw5FigAXg6dpwNwOPRvWgAno+fGBEAqL8DmAw0AAFMsQEIYBoNQAD9gQYggHE2AAHMoAEIYGAWDUAAk4EGIIApNgABjKIBCKA/0AAEMMcGIIB5NAABDHSjAQhgMtAABDDFBiCABTQAAawLNAABzLEBCGAeDUAAA4toAAJ4FWgAAphiAxDANBqAAMYCDUAAr9kABDCPBiCAgTdoAAJ4G2gAAnjHBiCAaTQAAawLNAABzLEBCGCeDUAAi2gAAngfaAAC+MAGIIBtaAAC+BhoAALYwAYggE8CQPd5Z2YAX/5kD44NAIBgAIA5HPjcCdCOSdq1Pkg327VVAAAAAAAAAAAAAAAAAAAAAAAAAAAAAAAAAAAAAAAAAAAAAAAAAAAAAACAV3sjG4wCADKjYV05yzSqAAAAAElFTkSuQmCC;" parent="81" vertex="1">
                    <mxGeometry x="15" y="13" width="36.67" height="36.67" as="geometry"/>
                </mxCell>
                <mxCell id="21" value="" style="group" parent="1" connectable="0" vertex="1">
                    <mxGeometry x="-351" y="88" width="160" height="60" as="geometry"/>
                </mxCell>
                <mxCell id="22" value="" style="strokeColor=#dddddd;fillColor=#ffffff;shadow=1;strokeWidth=1;rounded=1;absoluteArcSize=1;arcSize=2;fontSize=10;fontColor=#9E9E9E;align=center;html=1;" parent="21" vertex="1">
                    <mxGeometry width="160" height="60" as="geometry"/>
                </mxCell>
                <mxCell id="24" value="&lt;font style=&quot;font-size: 11px;&quot; face=&quot;Georgia&quot;&gt;&lt;b&gt;Storage/Analysis&lt;/b&gt;&lt;/font&gt;" style="text;strokeColor=none;fillColor=none;html=1;align=center;verticalAlign=middle;whiteSpace=wrap;rounded=0;fontSize=20;fontFamily=Architects Daughter;" parent="21" vertex="1">
                    <mxGeometry x="74.73000000000002" y="3" width="60" height="30" as="geometry"/>
                </mxCell>
                <mxCell id="25" value="&lt;font color=&quot;#b3b3b3&quot; style=&quot;font-size: 11px;&quot; face=&quot;Georgia&quot;&gt;bigquery&amp;nbsp;&lt;/font&gt;" style="text;strokeColor=none;fillColor=none;html=1;align=center;verticalAlign=middle;whiteSpace=wrap;rounded=0;fontSize=20;fontFamily=Architects Daughter;" parent="21" vertex="1">
                    <mxGeometry x="65" y="19.66999999999996" width="60" height="30" as="geometry"/>
                </mxCell>
                <mxCell id="77" value="" style="shape=image;verticalLabelPosition=bottom;labelBackgroundColor=default;verticalAlign=top;aspect=fixed;imageAspect=0;image=data:image/png,iVBORw0KGgoAAAANSUhEUgAAAEYAAABGCAYAAABxLuKEAAAAAXNSR0IArs4c6QAAAARnQU1BAACxjwv8YQUAAAAJcEhZcwAAFxEAABcRAcom8z8AABC+SURBVHhe5VwLdBzVebbThBAg5uFSTglNSJM2Je2JQx1C4oYqkmxMEg5tDzYBnCYFdndm1hYqh5AmNOm2jV62SxtbPhhb89iVbGKrluQXspOTxEmTA7IextgOBOwaEuC4No7QY+e5q51+/50rsHbv6GHtyqL9zvnPyLv3ztz73f95567nlApfM/yLq7YPXR1NZm6N6dajMdVMRjXz6ZhmnYzp9pmYatlRzfLw74Goar+G67Mxzd6Bv+slzbpnVbP94dgm/5Llrf7v8Fu+cxHb1H+51OJ8XEp61Zj0Pkmz/0cyHBOEOBAP5GRxHcE1ByJ8Jvg7Sv+m71QzA3FBkEWEQbpxj4aI7t2yMpWbX5Y48G7+qHcGYpuGfjeadO6AJrRjMv2S7mYl3fHlZAbi+ZLh+vRvSbdBBgkn5S3BZ/iOtUFb6kN96W98R6TZaHcQ/VfFUtYHoUnv4Y+enfjb1OD8mGEth6kcwMAzbFLGKBEiAqYoRJYBgvk9Y4Yzgmcdlw3nEcmwr+fDmD2A3V8U1a1FUtLdEdPM3NtaUQQywoSRhGcwbfJ8mOoRSbVWPNA0cBUf1oUF1PhyOMdvwHmeVVIjwUqWkhCBBGaaBTnmiGI4W+9Xf/tnfHgXBpEW8zoM6vFgYN6UCGEmAb+hNI/48RZ/jCjNOV9JZZnJiH2QSMgnuf5K9I/pznOSZv5NVWfuvXyoMwclaS6UDG8XTYSIEQ92rJA20aRXbkUfEAP/MITPT2FSr8AUTuDv44hCL0dV6zVc+ykqxbeALIgMoiZFPNrQmHCF009/Pd7qX8aHXFr4vj9XTmWWYmJ9NOCJB2szrSAySNUhv8bnz4CUzXCaD0c0666oZi+GKX4W/uLTIKgsojm3R3VTwr1Xg5x9uD6PPoNMo/BMRqrwWW8LPRPPttC3JtbqX86HXzrIug1S3Fdo5UUDOlfIHFYy8qwzmOCPQcoaWUt/4SvNuUv57SYFJel+QlLNauQw24gk0jxG0ASLQn4HZkV50ur71Tfez29XfER1988l3euNtxApYYMymclwcyFT2R/R0l+N9RYn14Am3QRTg19zT8SZLyLNEI0jEDJBmLqNAPGPlDnz2xQPUjL3Aaz8nkADQkhRTeZDSNUx+C5oSXVVS24ev0VRoWiZxRjHFizQWVoE4Xi4kFnBkfej7X3LW1uLV1KQA5M0Z+P46msGTjKZseAnmqJJ+yO8e8mQSCTeFTHsKJ75EtPQcUyLFhTtYIbWX/Du00NZwn93VHO+QZFnvOhDpCjN2TMg5TsrSqQlYYiS9hh290QRctWTFACsp6It6d/nXc8f0U3WIlS4Z1meEuJXuKb8OtqU/hrvNuNQksOfwFj2s6AQpjn4XCH/2JT+ZtW6l84/x6EwB7/SzjJaESnwKUxTUtk34Ny+yrtdMFQlcx+BSf/XeD6H/A3yL9RX3md4t6khkfDfJSXNZSBmhKX5BQ8hRwunlsqk0ebbs2WfJNps3ozxPk9mQwtXOO7ApHBtpG0R3m3yqDb8K2K6+VNWEAq0hcjCd7Rfos6awo0D5cAyuTnzG/i8gnGT0JwgyK2Gy3mXyYG0Rab9FNXMirUFXh7qGmlKdyvawB/ybrMGyxPHLoqo5r8oqUyoMyatkVT73x5Rc5NP/B5GZoo0vSMgpVBbKKOFnQ5ENHMl7zLrEG+2PxrVrS5uNgUSBBPr9aqUeyPvMjGQs3wcCVp/UN3m3xRFGhwu0vsf0PYi7zIrETWcB+WU64i13g7KlaQdIwvhXcYBGsU05+8RZXwZZXz+DZnd6s5prMa9vMd5I6rbEWjmGqQD/3quwAzqImr629Enzkwr31ipmtdGm8wfhGkNhXY8vy3akpv4Obety70XDnV/sC1QaEar4FuoIFy+4fS0y3k49aertlFN5Y4RpZlppCmr6cmreQjgY6qVlMu2WfPnQvs38KNvUv3Fm4ejSstdjezwNBK2whuxgTsuVrqeN58WED1CiKGVJGKmYP8hiOjWLVjIF4PCd+x8aOEpW5ZV627ePBwR3V6KQTmyUUgMG7CafhXp9228+bSAXOgXIjUPFsUcihvuJ3nT8wbVedCK7bQA+c9h/hKE0XbIw2tPjb8VAtX7FhFDK5d/IwrRcMrPUNTizaeFmSCGEFOtR5Vm5GOC0B3sDFp7kMx+gDcXQ9YdA6bk5d+E/i0lnRE45s286bQxU8TIKed2zOl1JVVoTmQZ+O6orDof483FgCN6mhK7fMeL1J9UblhSra/zptPGTBEjaekFlNOw8Jz3LK4AQ5GkuZA3FwONXgYB0IyxxLCqVbVOSdrwXbzptDFTxDzQlLsGWrFX9Czaw2FFctME+zS4wRvQmLffJXNhO++a+UrcsCt5UyHanstdt7Mv+1BHn7uhozfz70x63Mc7ujN3dr409nXGTBHz0Pbc+5DPbK/6vpgYmpui2Yt5czHo1EF+ZxLqjLB3IqZ6n+VNhejo8ha2d2e69h7JZdt63AzJU0dHRjp63cbOrrEbWDNFzJw5/lwkjilRZBolBj7mDt5YDHK8+Z1JAo2xjtMrDt5UiN3d3k3tPZlD+573/Z2HRpj88Fe+397rPnGhiKFXPvCZ4xITM5y/5s3FQOOBUFPSrZOxpPeXvKkQOw96nwIxPU8dBRk9HpN9v/R9MqcLRUy18eYVsIT2VeOYUkRPL+XNxYDTfRVaI3S+9IaQXobxpkKUkphjx/yL9h/LXXWuPPuyf0W+78pHtWFfjyz7R6Kdvbc0Rh0ad8ERrq3DYFcQrumludUfbbIl3lSIUhLTfjhze0dP5szO3syZ9m73zK7DuTMd3d6JnX3ufbyJEKua3QW478GwcC3plodIfDNvLgYKuzY42Ux+gkdbECDNkzS3gTcVopTE7Ho2u3zvEd+ne+95zvfJj4Egu6PHq+JNhFCSmXJo+0vcT459FttaMU9Gku6f8uZiSKpdD2LcwpKA71+odmfCD9+/KCUxHX2ZOzt6sz7SAXbf3YcZMQMdvV6cNxFCbjIVaIXDN6cKniVp1k8mPHgkp9x70cEWbVKxDSrVeoHeJfPmBWBRqTvTN2PE9LiD+HsVb1IA2qSH9m98cHvhc2ix2VsDzWpStvpX8i5i0BtE+JeBYHBjbxT4GXtQMexQ1d3T5S6AxnQzNS8xMWRORMyuPi/GmxTggSbnBhDwC/ErFTheLLakmnEK6byLGMu2/+Z96NAdmNJYB0x+h+wUHn4bkgPhjVq6zs5Dtrtx3y9zI5hI6YjpzTBf097tHdnZ532KNylA1HDvhpn0ixY68KN2RtGsMt48HHREFINaS1Ep3wGTxLdQhWr+KtIUXnTtPOze2NHtHuw8FmhNKYjZAyfc3usN4f4y/7oACcO/GKa/SfQMEtrUx/UZ2jjnXcYHMUilgSTwM7TlKUObomr68bIDfug5WxBxLwY99BTIKTYxRApFJzhdDSYQGgjoFZBsOK/JIUdFKJggTP8z1VK8y/hQtg5cCRU7KDInEr5NeDKi2xW8SwEOgLS2bve7qJPsH58oHjF74HA7QTRI37erLxe60l9pPnUpJr1FVDiSkDVArMjm8DkUgA4Uy5rzYNC5cCcvyBbZluDWhx4LZ3vnC7n3IyFb88MXR5y2bi/Z2jv2yNdUiWnry969+9lsDqR07DiU+yP+sRCSNnyPnHR/K/ItJMwZo0y4XzWv5V0mh/gW60Po+N+SYO+XJHg57p6OqHaUdxFi927/kraDbl1HT/Y7W4+MDYlTIYaiRvuh3BdQrW9qOzz8e/xjIWR18GOy7h6gNxr592aChVVaso7c7E68CZ6PRMK/KKY7/0CDFDlhEmId1fZxOlzIu4XAn9t5KHf17t6xR72mQkwr8hH4lSuNA/7F/CMhVqYG50OTt4nDM4k5qi2dVS3mdbzb1CAZ/vW42TG2YSzwNSSMHN3uwer8Ce82abDXJwIfEGZKE4GcaKzJXDveYpLfRDQaRGlz/juRLGs03BUSisrAERc+CFrlx5tpcs5+UmHedVJA/4MPtfk+7ZNQZkpXkuoddBAJEVE1Q/OTfNBJUFm1HsUimaLUf1SYhqqmSr974F3PD3QaAKayNSjAxFpDqxOclfF+IhvmpA/koO6SkY5vxD2ewGCTuP8WepaUzGzFymvk53jTcfHgk8PXQPvW4D5WoN2FYySh0w+yYfVJzekFvOv0QAkQvU4Vle2jQpGKnB3U9GikiBvmE0FpGroBz/4+KmhuguLxyTquyZx/5/es//zMY7nineeJa9bnYE7HRaX7uUKqCg06FdOtxISl/DRAx2QjmnUPRZ/Az4l9Cgkqa3K2/rJ1tl9RZznlNenvfal+gqJxCphLAwE5Z9mJa8EAAgnO+rJwnsz8XFKHq2ObrA/ye0wbm3r990i6+Vcxw0nheUPh0ScQOrVBxHy50fIX16VBjEPkjFTUWuuKRk6iFSFcs76J1clOdCKbmRYPxUgS96IP/fyv7Hx/9EBndhBJ7kHi+QTykFPkpMcznVEhE1rxuOUvqU/7n68BMbVpv7LeDcipGVpflvCv4I+YHmhidIYFNdMgleykIaIBjQpFsyoQxOorzXqB/AFI+lZUNe+gfZ0HnsxdE2TP/lw6wEMb19LGN6+/T3MXRDYPVyAnUdB+Y1S3fw5zGCSyw2qfc4U0ha73brT8pavTPsyHkTIqATkmJ+fN4pBDmgN1ljDpk6IETSRUfJJ/opXm2vYqSOoCWXtB0jYITMNspjQ92mT+CFXxQUSqF/G9R33IZCajISTMp+B6V6PpL2l4W1PyZZSc8tqhxsUNRfyFCirsLynJbBdLvWE6+QMME3KU5IMoyhGxlOSN5jD0imMlPqPviEjxcbdwieO+sZTv3wlHW1k3HErKqHCzylbUpNfflhhb5E4LESP9SQy+XcEkaLKiwc6EEIHMzDSrb9m6dCsm7VXQpAVk5EtlA9OcLGlOUcn5O936AwyOnDIzLdRPwsGXQkj7gmLRdpGFb5ZT6RsXrTavLa9N/wcmm2OTFpCRL9Sust7KVNSl1y9anSvub5uiwS9p12OQ/Wz1mBlM3sSmIkQImRs5daQPuxXd/TId2uZDmXMrkrjPw7FOmZw6MwNSGxc9UmRyVqw7O4/e48AxPwZSXme+AnkNRafAD50PUUE/IoNyKLonnLKLNGAHbR3cr/YLS4fKusH5FHUq6q2RSZPDzM/yiJwla4tzcmwMqKhTdO8mRB4J5UQHJtZPzpQ5VNQzVOgRWTRZynkKhbZQg1/ok+9iqYFK53asZxTD+SdZtysms8l0a2LgKnKsMJEpaU5FrQlyrMayDSX8sSmdb0M+cjPU/m5Zs9eyEK1ZRzHJITZpTti5gtCdgZxkL8M0k34YpqBPWWTz4B9TusBvPSkQOeU1QxsoNE+NnLRXWW82LJyJ/yIhvuH0ZfQzQjrzpiS9hXSSKWbYlXQ+hY5iKEn7VmSrtxCRVGvF1dyHivEjjs8h/a+osdZjsiOBuYgJOVcWr8niap6tbJzdJ+CnDUr/y7+bbsRksxOSU2fB3zh+Za3ZiWp8cm8R3smg9J/yFTjXcHI4KRU1wz/7YoNzA+/6fx+3rcvNI59TXjucLfA5o6TUDv9sacNwybZNZi0+nTg7j0IyyMi8Rc4oKXXmT5esHb6w/3HGhURZ4vRlLFoh+ixenUUkCkhZ2lC6DbZ3DJasPXVpOUJyeQ2iT63Vufj/k0+ZCPQ2pLJxcP7tidcv4R/lYc6c/wWjAaivpM1E8wAAAABJRU5ErkJggg==;" parent="21" vertex="1">
                    <mxGeometry x="6" y="10.17" width="39.67" height="39.67" as="geometry"/>
                </mxCell>
                <mxCell id="56" value="" style="group" parent="1" vertex="1" connectable="0">
                    <mxGeometry x="-570" y="160" width="160" height="60" as="geometry"/>
                </mxCell>
                <mxCell id="57" value="" style="strokeColor=#dddddd;fillColor=#ffffff;shadow=1;strokeWidth=1;rounded=1;absoluteArcSize=1;arcSize=2;fontSize=10;fontColor=#9E9E9E;align=center;html=1;" parent="56" vertex="1">
                    <mxGeometry width="160" height="60" as="geometry"/>
                </mxCell>
                <mxCell id="58" value="&lt;b&gt;ingest&lt;/b&gt;" style="text;html=1;strokeColor=none;fillColor=none;align=center;verticalAlign=middle;whiteSpace=wrap;rounded=0;" parent="56" vertex="1">
                    <mxGeometry x="57.5" width="60" height="30" as="geometry"/>
                </mxCell>
                <mxCell id="59" value="&lt;font color=&quot;#707070&quot;&gt;data flow&lt;/font&gt;" style="text;html=1;strokeColor=none;fillColor=none;align=center;verticalAlign=middle;whiteSpace=wrap;rounded=0;" parent="56" vertex="1">
                    <mxGeometry x="57.5" y="30" width="82.5" height="30" as="geometry"/>
                </mxCell>
                <mxCell id="76" value="" style="shape=image;verticalLabelPosition=bottom;labelBackgroundColor=default;verticalAlign=top;aspect=fixed;imageAspect=0;image=data:image/png,iVBORw0KGgoAAAANSUhEUgAAADgAAABNCAYAAADzaadsAAAAAXNSR0IArs4c6QAAAARnQU1BAACxjwv8YQUAAAAJcEhZcwAAFxEAABcRAcom8z8AABUASURBVHhezVsJfJTlmaeHuh51q13rWgWtsrputdpda9W2YiYB1F12aS1aD+RI5ki4xJWKZ1bJJAQUxFo1ZI4cXAmZM5BwbaNIgcyVcIhIVQoqUS4xM985M9/b//POF5hJJkASQJ7f7/nNzDfvfPP+v+d5/u/zvMeg/oilVrvBYhedZocULKhSHqyvZ9/Rvzql8h8V7JycWdGHh5dGXxo5O/oT/fLpk0KHONjkkF4y2YWdANdpcsiy0S7uw7XqAqdyq95s4FLMvp03W/yVwRqth3bklsqHDSWxbYZSYfKvyo5corc6dTLF3nmZxSk/YbRLQYCKFtZozFIVZ2anwug9rsVNdnGnySE+P8GuXab/rF+SN1u+EWBez7HGPs4tFZN55QmWVx5nebNVZiiTDxmswkp8f9+gQexb+k8GJhNtwo+MNmlBYW2ys2gRA6AkM9klqHhUCWxRLWNmu3QEFl1nrhIfLm5h39VvcVJisGqXG6yxZwEgAmDS8Dkayy2TGa6ltFRgeXOS/FrubHl3rjX21r3W6E/1n/dfit748iKLI26wVMerAUYkkHDPDIAplTj4ohoOdI/RJjgsTuEO/Ta9yvC52oV51pjRUCL8f45VODJiLktZqwtYugLk8FcYy4VF8SAcI8uka/TbDFyMb++/wmiLjTU5lTWFVYmUa/YAKQK8nLKmQ2HmqnjI6BRfMFdpV+q3yRB0cjQ6vsxQKu6jjpMr9gDFFcDIerMVgBTX5sz6ekLOHOm6YsSqfqtTJxPssVvAoC/ASh9MXgKXrU5kB4r4nLyUMaNDEsx20V9giz46ppidS/cYbhV/mWsV58MVdw4ni6Hz2YHFADrBqE2uVWiDpWfmvBy7hXfktApj37JUSyPNTtEO1zxIQC1ValagPD7x/YQKYff0RYp13EJ5xj2zYusNZXHecXK77MDibMSr/PuPEW/zc2dJ9+j/fuZkmvOr7xfYYkaTTViDoSI5aTFc0ykfBVdgE9mEhaI2tUZis3wqm9csJ6cvktjo11Q2slxiOSUxrhnAEH8cmFU4gLhcnGcVfmvCeKj/5TcjFpt8A1zWCgbdWlSLIaRaYxMrRTapSmTPLZe1N9YozBOKs7rWOCt2K/hOYo++KbL/fhXMWBpj9wBkbpnCRhCBWAURY99qgLMMm//V9/W/ODsEw0nO+Aphocmh7J6xRNTmNSusbpPK/BFoWGW1GxT2XL3E8gHe4hRZPiz84Osiu7ccliwV9wPou7Dii7+e+9WP9VuefVLdot02r1ldV7tBTfoiSeYNqcwdVPlrzQaVPasD7HJjcunxFZL2m/nCltHzhd/qtzn7pD4kDvGEEuO94cQmgOHgCFiXemHB6vdU9kxdJkBSnaBks1OqL7RLedOc7OxxTXer9gNPJH4/QKxwB5WEr03j8ZYO7kQASSl5oKEF7w+BsMoLqztv/EbJZXW7duHyoPoLgKlyh9ROWI55IwQu0QMcqQ8Aq95T2MxeAJJSkkDWBFkl8Xk7LJpveTP6Q/0vz4xUhNg5K1vl673B+FxPUN0HgLAag4V6AuOgw0luUQ5wPQAu0wHqFiNQmUDpugoSUvGdKJhsYiOR1zgn+we9C6dPYLUfwlozXEH1fXRa8rcz5oPVugMjQF49Bl0BJQnVCKDzXYU93QXQJmhkqWOumZnfEnA9S9IwBKEkE+cZq6TrKMnQu3PqxP85u8AbTDzuCsTfQ8ePEDA/rNYdmBvAPLBaimAUzRVQvbheifefrtyqpQAuBRAn7/insOISpHLvkVumrNkziafrekkm4oFEALJwhk37nt61gYs7IN+HTnr87ckOAtW4hWUlEe6GEf37YDzkDicmegLaYIAbB6B7mrczZgfAGQBormbU+U+Qoz5OVrHYxGJ8/oIsls2apBZ8R9UKqpr9JlvMS2yrd7F/4opoP4dFKnzt2i4ijyZ0sFcCwfcrtjIG190LFy72tLFbGUtl+g1hZSyuf968DQDfOQbQWCn8DRnQA9RmyoKDF09ySMNh0aVGh5jkNWeP2ITCwrxSIWtXqTSr8Mqk6q+vp3uctLhBILDGLE84HiZAzTuIQDLHtC6l6yng8U48jLc9rVIusat+Ky4NQSkfbfcdBbiky4ICLKg8qDfjAta8BmpE/G0mIIXVVFx3AwklgDzvdcgK7rPebBOKpizQLtZvk11cO7Qr8KSnwALrvKGEsgrAshEIKcUZAcd7DeqBGz7s26pdrt8qQzxBpQBtOpoA0AaAT+kAjQ75owK7/Du9WYaYK9XbzXZhjtkud0xCgd1rpQK35UCr1P2wZm2+I3a/fotMaQhrV7uD8Up/e+IIASMS6QKTrhRnze8jzuCOIJsNuPakNyDfoN8mq7iC8lTEsbJ+D2NLQow952NsagMsaBP3gxkf0pv1kP+t0S40OcUxaOcGmASVZKlKRegBlGYZUq6rbjPbpJfzK5XMqQxfe9zgDqhHVu/MDox0JSxA7uiLJHbCfee4NqsnnI4gQaI9DBae37RNcy78s7oUFlxqqk4ugoVexVBxm96sVwGZXFvgEJ+2OJUgsSlZtDtArohZsmZRas6oKqPa94UIoPIZgUgHBfbj1iR39ESSX+BajScsj9J/dlJCZBNCckA6vU47/47p2vnD53ZcSFTfl1QMlrwbBFRR6Ix/RkDIPbMBJUuDjHZk3NsViQ9H53sApEwERHMY1l3jCaim+u3sIv0nfRaaZVu1TRu8aps4GKD7NVhPadLOM9ti4wF2DWJO4OMjSq50gNzCDimSAdDXGr+XqJyoPh0gxRssW+9Bx/SmfRYCs7xd+Zk3kpiJOF+GxHwpHtpTrkD0Jr1Jn6XIJl4NYPNALh2pcfMEAF3B+H8CyL7uANfuApmE1Jl6s36JP6AOA+tupvhthLtTIrAS/wOQ73iDwi/0Zn2W/Mro5SaHsITc9YQAwY6jQQSHVn+QYtAubdlNHVGf1Zv1WZp2HbzYE1K8TfAEbzhVRpF2JQYYkpY6W/qXRNOENBh16ckBDMdHISH+qHGLFoUlo7AeVImt3pmUvEF1ut6sz+Jui4+A63/IXT3NM0hpOMLrNnereqfevE9iqhaHIAn3TFueGiK41jA2rZ4DfD8zBsPaUHdIMXrC6h9QAv0BT/YZvL7gCStzfG3qL/VmfRZ3MDEOID7r7vqk5LJg6d3uQLxf0xQFC4WraNpy0iLtAJLwA0abeBCvB4tqNSqY38kAWAwqb2Hsuy1gOloK46/b2bkVfnYBvdeb9VngGbmw4M5eLRhQty7fpPYrDsegn4WL2SWFDm1w0SLx6gkYL8cv1v6laIn2k6IabegpW5w5ntS3sIsAsCGVIKSqfVJ/m8bJxhVSaxc07TpPb356pS6i/RsI5Sk8XQeI4VUa/Glw1r/ut/jD2p3ecHw9uSmVW0RexKZI1Fe7gsq/680GJORlTVu0q6gg1y9lSkNIHo0/+wue7CGqwAFSXLFV2+VDLKJjA15wXBZQbvKFtCfAoNXQKl84MXllu9y3MieL7NqlnUdxjr6vQ24c8rZpAXiME4x9LAX0bZZ+jAF4E6VjlMmQK9GTpry0sV07CAJ6TG86IEFsn0sFsCcgDh5IXHcJJRCeQMLUtF3bS32n/q75kKWGn6CydnlYSyXcsJYFGs3GdDTQu8Nxp7v16x/wxmeRwLvuAAu3rf0r+pg2w7ACsZ2aTolX8pTQFYq/BRN30sxYOjhSTuVBdbWvVTn9GwD6KO5QYpqvPRnvWYzHuSei37sXU3ihQSlMGqXgz2yosjUwO4jH6w+xIfp9zxrxtKpP6ylfj36TYTzB+D4Q52WDPBH1LiqVaKyiNKqrETHdiq14Oq3y8zQXqt/3rBF3OPGYq1U5Qv1MB0eAyU0BMEwkxBvjw//hywOrEaRkNZ5kh5PJhoC6fHnrqdufQgmF/nbAQtkXkvh6Ihfij3RyBBYR5d0TR8syjHcXuMPqZGQWK0C3G/0R7c+w6jzvFu240xEnK3UbozeD8cZ6ItpTiHVTHfJP5+6Bz1T7A+IwV0BeB6AHASqJ9FL1tWkfIQ5fqd2cZRKqCQWlb6M0dO0O7ZSxJkjM4G9LvEtPmcJgFSoWb1v8rw2tyvi6jdr5erN+i387GwJ3fRLh9RY88TVPQH6AnaadVz2kLiwNReKwgUB5+BpFKlXjUyCh+MfugHxm1gObEIyL3ztyCZ7opZS5kHa9p6Rbb9Zngds/hzGqk/JOIoAupakQDhr1YH/3uVF80TSIqSJ0Dm39SiXX0OLib/fYXtKwOZ6DzP81PFUHOlBJCpKxeSPx1xvb1Nv1Zn0WlF0OmhXvOVZhCAKRYaBu2bChf+sMvKKvlEeZ7Uq+xamMNdvERy0O5ZFCh/JQgaPz1xmLNL6IWoixcL9/ixbHoM8VZBNHjXjIFU78Xm/WZ0EWNB9gEtkmkAkgSKEZlugXs5qq1TuNDundwlothjowarQLUZNdipqdaicq+wZY8Vg6iD+a4grKnV1lDSmNJQAadQX6D7AhqDyCjGIvTVmk4i81ZcEXaMJq3BtKztab9lnyndI9Joe4ZYq+GYkUdWBqAtguNmcA9IbUSbDg4fRY0Z/6YV8oMUZv1mehaUYw25tw/6Qf9yZXpfvq1fyqpm3adXrTPou5EgDtYlv6ljK+KOOQaYXYM6y45fgA6YlzN0V9SFP7etM+izcs/Aj3eBLE8g7G2T3IIbf42zXriab8TyQmpzDa5BD+ZklboOFTiA6JGW2iiyp+vWl2gKT0xAHyCL57F2lRQcvu3f0anGnmzL1JvtFLa/pt7Nb6EPtH/as+y/RK7VK45pNkPYBR0pfAj86R2sT6DIC+sDoFIL7qDpCUknByKX9b8nN8drqRPeg/O6NSz9h3TJXiQwDnBpEc5Ns6u036pj4LGk0nZgBEqjMWnRcojyMSSAfIFdeIKPhUQ0QL04xbw1bpWv3nx5XFG5UCzxbtzWWblDfKG5WyApv4rLFSmGV0yg9kzHwdRxBTw2CptyzO+CddK0npwNIBptxUbMgE2MauAZk862tLvE/reJRW9QAJJZdNZSUJFZ/9rlbx0ZpuC57dpX6zsnbDF4ytQ2E6bw1jExcKydQCScxdfIKdExabchPcrRjgQjTnySd5s6zjk9KuRtq+ifeHTA75yYxxsEsaNsn3ewLxaqRVh/k6YZYimJSu8/IqnOig/M8X7H3uFKmal8CtbFfZ3JUqy7cpbCr8zWyP+Yt7yZLMVcKVZruUD2DNZJHJAJaKtZ5rg7Q4ytcO7ZKCzysxNhYYa7Ur9Fv1lLqNRy4FhReB7VqQSiUJKOWR2YCSpal69oYSAV8wMdkdlHrQPsjJT+XXijaVzVkhw4Iim7KMLCG6u+/rnkhLapXCKACpwaAt8mWybnGWUgGuKKeAkUWdyl8scP3CxScXNlxWhLUbqezwt2k7iGj40lqW+KThhIAiLjW8r0c2P6o+dPgoS1IJ1gWwvFFmEypSABFXLr0Jn8Q12dQ74X7lRru8j9YXelu2JkumgKussCqxDQDnT7QpP9Nv1XdpDMVHAkiDry35JYHMNrVBSvHJYzegHMDAXuqKKLdUgERQFvn4bFc6wDoCKCym+9NeU6NNmGa0S1uJQCiWsm0jodijOKSNCZaqxB60WWRxSAbeyYGK9wPte1QQI95CYFmJu2W33YSkxMC0CYjSPAANLt+UMC5vlTc0v4/UDwBnA+B4AJy8hC9cNpmr5N/AVdeSNfhmoKwEIqVSMWQsZodC6w9r4La/L67vf5XTq/i2a0ORXy5AfvnZ0ZwSLtoDKN+jxq/LGF/jvC0AlukAOWHYRMnsEDs5tdPnLODImvqeGSTTYhhWn1q4+DScfEkXqt+oSkfMNQLEEZpu5FOO3eKTQJHb0it9ph2/Zf4UQA4AgI6C6waMrvNdT8SMNuFjGjenVotDslL/6RKaDPa0JUzo/HaQkUqxSYDSQaYrbcYrTQeYRQksj0GHlIRrHjTZ5Lfzq5SfTllwhhZougstzqxs164ntoWlDvLcNc1qJw2wy5qIRbihCHANtIWShg39r75ZoWGBtnH5wgk3wMggGgwZmSCR0DOrDwAxDnYHiDFNM9sF1WSXWwqd4hhLzRneBHuysgalkXN9cpYrEP8QSYLmixwjoC6AEzIASny/S4Fd3mOslKfyODtbpWChdtW4CnEmiCE8Y4l0+E9r5O3eSKLD35ZiVJASK/EeA2hxiKygUmQP/lFm980RonnWWMPdL6k/12939siUJu1io0MoApW3EJ0XYjAusCHbqJL2v9gg73OuV3Y0RuJfNQJoiU9K5Nt4QcoefkNgo15JHQzJsUp00kUzlMS2G8qiZSNKpaH67b85oeECcfM7EEQd2O8LygtTZwt193OobGKloE5fpHyOHPSTJZuUvS95pMQjbyXZ/7wa00bMTh3r6Trak1smdZ1lUgB2LR25G/ZG/3dWDUiI4Sx2+Y8A9hHlhenzIhkK2i+kEgeD+ktuedHUWnnhyHKxg47SGUrTDj+mKT+7RN9bhS9zrVFnXklspP63p19Q4txiqRKfB+uFu/amEFFkA8d3BlK275Q+RJE777E/iXfdUqJdeffL0UdyS0U/3FFNnS4Te4DkQMsTqbNMpcI2uHFxbln0Zr0bp17GVhweYnTECszV6moarygpzpZacWBIhnlBa5c6TA5hEU0OdZ9phjtea7B2vpg7Ww7llauMjrPSIcieQOlgpH7UtUxuzi2NjRs+9xQOIZTQmivl+y3VSTdyQZVbJEtqRcor6hSwrzGeraLCs6j++DGUM6vzboM16kDc7eUHJXs7AQorc7e2xjrh2hW5pdK9w+f2sqOiL0K7bs128TmQx6fkctwlu1mOKgGq3/SKOoAH8IyxNtZ7Rd1NaF4GRPO4oTS2DkC+5qc90w8np2kerHnf6xxocOQcsV9bwHoILXIULIz9Fx1TBZgDBJKsxV0V71MWFT6kwrOwWrtR/1mfZdgc9s8AWQy33A6LJvmxVz0+CTBnWH62MBbMs4ozDSUHs54L7rfQaU9zpTAdVtoCN1QKARJu24HP9SCSU3b8NK9EuC3XKtQYSqIduWDU1NARiwPYxzmlsVfocLLe9PSIySn/q8keexsWXUd545gBLK/1JnSY2VAmjgGwDbllyl5YbpGhRLj9zJVL+KOMecfTJMOKO/8JAG++q7y/VcWgQX8HrJKPD7NO54oAAAAASUVORK5CYII=;" parent="56" vertex="1">
                    <mxGeometry x="10" y="6.5" width="34.18" height="47" as="geometry"/>
                </mxCell>
                <mxCell id="63" value="serve" style="rounded=1;absoluteArcSize=1;arcSize=2;html=1;strokeColor=#4284F3;gradientColor=none;shadow=0;dashed=1;fontSize=12;fontColor=#9E9E9E;align=left;verticalAlign=top;spacing=10;spacingTop=-4;fillColor=none;dashPattern=1 2;strokeWidth=2;" parent="1" vertex="1">
                    <mxGeometry x="-795.25" y="320" width="620.5" height="99.5" as="geometry"/>
                </mxCell>
                <mxCell id="64" value="" style="group" parent="1" connectable="0" vertex="1">
                    <mxGeometry x="-670" y="339.75" width="160" height="60" as="geometry"/>
                </mxCell>
                <mxCell id="65" value="" style="strokeColor=#dddddd;fillColor=#ffffff;shadow=1;strokeWidth=1;rounded=1;absoluteArcSize=1;arcSize=2;fontSize=10;fontColor=#9E9E9E;align=center;html=1;" parent="64" vertex="1">
                    <mxGeometry width="160" height="60" as="geometry"/>
                </mxCell>
                <mxCell id="67" value="&lt;font style=&quot;font-size: 11px;&quot; face=&quot;Georgia&quot;&gt;&lt;b&gt;analytics&lt;/b&gt;&lt;/font&gt;" style="text;strokeColor=none;fillColor=none;html=1;align=center;verticalAlign=middle;whiteSpace=wrap;rounded=0;fontSize=20;fontFamily=Architects Daughter;" parent="64" vertex="1">
                    <mxGeometry x="74.73000000000002" y="3" width="60" height="30" as="geometry"/>
                </mxCell>
                <mxCell id="68" value="&lt;font color=&quot;#b3b3b3&quot; style=&quot;font-size: 11px;&quot; face=&quot;Georgia&quot;&gt;google studio&lt;/font&gt;" style="text;strokeColor=none;fillColor=none;html=1;align=center;verticalAlign=middle;whiteSpace=wrap;rounded=0;fontSize=20;fontFamily=Architects Daughter;" parent="64" vertex="1">
                    <mxGeometry x="65" y="19.67" width="85" height="30" as="geometry"/>
                </mxCell>
                <mxCell id="83" value="" style="shape=image;verticalLabelPosition=bottom;labelBackgroundColor=default;verticalAlign=top;aspect=fixed;imageAspect=0;image=data:image/png,iVBORw0KGgoAAAANSUhEUgAAAgAAAAIACAYAAAD0eNT6AAAkjklEQVR42u3de7hdZX0ncMJNBEG8PVamjjpFndahSlGxIHhuSUgI4ZIEAhLI5ex9AkjHSztq5Rn2Q87eJxdyIQkkJ2fvfcRi65POWNtnWo3OgA+O006rdaYdba1UsUpVKJCcvdba4bpmnRAt94TknP3uvfbn8zzfJxjDPzw5v++71nrXu444AgAAAAAAAAAAAAAAAAAAAAAAAAAAAAAAAAAAAAAAAAAAAAAAAAAAAAAAAAAAAAAAAAAAAAAAAAAAAAAAAAAAAAAAAAAAAAAAAAAAAAAAAAAAAAAAAAAAAAAAAAAAAAAAAAAAAAAAAAAAAAAAAAAAAAAAAAAAAAAAYBoVR9PjB8fiMwrVZPFQvbmsWGveWKwma4Zq8Xihlvzh5K8/T7He3L7v/xeZwiwbTdYs3hJXL9sS375gU/xHk7loQ7zrwpuTu/rK8Y19lei3+yvR1ZPpLUf9fcMTZ/WUJl7rpxfgIC2vpScO1eMLi7W4NFRLPl+sJX+fJRVpSapJetW2OF20OU4vXB+nc9dG6cxKlPaVDzkPZfmL3uHo09mvH++vTJyzqJQe6ycdIDM4Fv16dpX1iUI9uSsbwo8qImllrtqe7Cv8eevitP/wyv5gE/cNR7v6KtEn+oaT95oAQJeVfvMt2fAdyfIjJSStzrIdcbrgljidtbolhX+g3NtXbgz3VybeZjIAuVQcTY8ZqicLi7V4VzaEn1RE0soUqkl62Zanbuu3Qem/UP6id7hx7ax16QkmBtDxlo6nx2XD97ezIfxTRSStzmBW/Iuyq/2ZI21d/M/OA33l+FMDqx96pQkCdOYVfy1emQ3h+xSRtDorxpJ0waY4Hah0VPE/O7t7hxtlbxQAHWOo3ryyWE3uUUQSIpO3+gdGOrr4n52H+8uN60ql9EjTBWhLK6rNNxVr8VeUkITa0T9nTa6K/9n5hjcHgPaSpjMK1fjabAhPKCJp/XP+OL14Y66L/+l5oq/c2NZTuv8VBg8Q1OQrffvf4VdG0vIsza76z1sTd0v5Pz1/N3BTdJoJBARRqO8dyIbwg4pIQmTxlqTTN/kdbpK+cjxoEgEtNVRLrs+G8GOKSEK82jd/Q9zNxf+M9FaiO35zQ/pyUwmYVpOv9xWrzTFFJEHKfyxJ565T/s9ZBJTjr/WUHj7ZhAKmxbW3pq/IhvBXFZGEerc/57v8Dzd/O3NNfIpJBUypJZ9JT8iG8NcUkQTZ7DfaNmf3t3vu7V018XYTC5iq2/7Hu/KXYB/vGe24o3xD56d9q3b/iskFTEX536mIJESWjyXpbFf+h5DGP/asjX7JBAMOyaKd6VFDteaXFJGE2fAXp3PWKvNDTX85+tac0oMnmWTAS7/6ryU3KyIJ8vneLOfb7T8VrwjeNWdz+jLTDDhoQ/XkckUkoXLxRuU/dXcC4ltNNOCgFMajd2VDOFZEEiJX3Kr8pzzDjUUmG/CiVlT3vDobwj9QRBJqx3+XH+87XdntzQDgRRXr8acVkYR67u+gn+n9nLD9AMDzl39t7yxFJKGy8Ba3/lvwemDJpAOeYf9Jf279S7Bb//1u/bciTY8CgGcYqiebFJGEyrx1yrllrwYOR1808YB99u/6f0IRiV3/3bIIaCww+YAjivXkTxSRBEk1SWc55z9EfriolB5r+kFXX/3H78kG8ZPKSEJk8dZEGYdKJS6YgNDNV/+15p8pIgmV2Wvc/g+X+J7J732YgtCFhmrJbyohCZXLtyr/Nvhg0JUmIXj2L9LSnOfqvx3y7SPSdIZpCF1keS0+JRvCjykiCZEltyn/dsnAqmjARIQuUqg2P6mIJFQu2mAB0EaPAW43EaFbpOmMbAj/gyKSIGf+V5N0oGIB0EabARuz1qUnGIzQDVf/9eYHFJEE2/zn4J82fCUwWmIyQjcsAGpxVRFJuGN/LQDaMF82GaELZEP4R4pIQmSwGk8+c1a47ZdHz17zwImmI+TYUP2RX1NEEiofvM3Jf237fYBKPNeEhHxf/X9YEUmoXLLJ7f82zs0mJOT5+X+1+aeKSEJlzlpF28b5pgkJeb36H02PyYZwpIgkyPP/Mbf/2zxPzC7tebVJCXm8+t/ReIciklC5cpvb/x1wKNBMkxLyuACoJZcqIgmVy7ZYALR9hhsfMikhj48Aas0bFZGEysUbLQDa/0CgeItJCXlcANSTnYpIHAAkDgSCrlsANP+fIpJQmbVawXZA7jUpIZePAJJYEUmQDwDVvAHQKW8C9JTSo01LyJFFO9NjFZF4BVAOlJ7SwyebmJAjy+qN1ykiCZXlOywAOiWzhpM3mpiQI0Pje9+qiCRUlo7aANgxZwFUGr9mYkKeFgC1+N2KSELlqu3uAHTOR4GSM01MyJHBerNPEYlTAOWAC4By1G9iQp7uAFSb5yoiCZUlFgCddBrguSYm5EixHv+GIpJQuXrUI4BOycBIfLqJCTlS2LH3bYpIQmXZDncAOuY1wJE9p5qYkKc7AKPxGxSRhMoK5wB00hcBX29iQo4sr6UnKiIJdhJg1QKgU3JBKT3exIQ8SdMZ2SB+RBlJqPRXlGsHJDIsIY+PAWrxtxWRhMqcNQq2/d8AiP7apIQcGqoln1dEEirz19sI2AH5A5MS8rgAqMcVRSShsvAWC4D2T6NkUkIeHwFUm1crIgmVy7daAHTAI4DLTUrI4wKgnpypiMRhQPKCxwCvjt5pUkIOLR1Pj8sGcaKMJFQGRpRsG+fBUik90qSEvN4FqMVfUUQSKhesV7Rt/Pz/8yYk5HoB0PyEIpJQuWyLfQBt/BGgD5mQkGNDtfjdikhCZal9AO37/P+mxjtMSMixyWd8xXrykDKSUJlpH0A75j7TEbriLkByhyKSULlkk8cAbZgNJiN0wwJgbO9MRSTBXgfc7jFA230CuBy9y2SE7nkM8ENlJKFy3lql2zapRH9jKkIXKdTjVYpIQmXRZo8B2mbzXzn6HRMRukjx03t/JRvETyojCZHlY8nklacCDp9HzinHbzARodsWAbXkvysjCZWLNirgNjj8Z8wkhK58DND8gCKSUFm2I077lXDIPNYzsudUkxC61FAt+R/KSELlwvX2AgTMZ01A6OYFQLV5riISJwN2XZ5w8h9gL4CEvQuwwV2AAPk9kw84olhPzswG8RPKSEJkxViSDngjoJXZ3V+OXm/yAT9fBGxRRuIrgb76B3SZ5bX0xGwQ/5MyklCZ43TAVuSbi3amR5l4wDPvAlTj8xWRhMpV2xOvBU7za399w8l7TTrgBRYByeeUkTgiOJf5uAkHvKAV1T2vzgbx95WRhMq8m5X1NOTPjkjTGSYc8KIGx6JfzwZxrIwk1FsBs1Yr7SnMj3tKE6812YCDUqgmi5WRBNsPsC32saAp+thPf2XiHBMNeEmG6sk6ZSShcvlW+wEO97S/vuHocpMMeMkmXxcq1pM/UUYSKpfaFHjI6R1u/JYpBhyy6zenLytUm3+qjCRUFmyyCDiE8i+bXsCULAKGas0vKSMJlYs3WgQcdPmX462mFjBllo6nxxXq8ZeVkYTKwlssAg6cRsm0AqbcR3amL88G8R8rI/HNgLbL432VxjWmFDBtSqX0yGItLisjCZUrbo3Tfq8IPj3N/kpjoekEtMT+cwIcFiRBcvVoks5e7W5AXzn+3sBIfLqJBLTU4Fh8RjaMf6SQJESyv3/p/A3duwjorUSfm1N68CSTCAjimtt2v6pQi29XSBJuX0DSbY8Emn3D8UrTB2gLQ+Px3GwY/5NCkhBZtiNO563rgrsBw9GunpE9p5o4QFu5/o70pGKtOaqQJOQGwVkjuSz/H9noB7T/3YBa/G4HB0mwvQHVeN/pgTl5LBBnWd1Tuv8VJgvQMQbHm+dkA/mrSklCfVZ4ciEw0JkLgd2Tx/meU2m8ziQBOveOwNjemcVavCsbyk8qJmn92wJJunBznM5c3QHFX4l+1leJb+gpPXyyyQHkxopq802FerwqG8o/VkzS6hSyfPC2JJ2/Pk7726v49/aV4z/srcTzzxhNjzEpgNya/MxwthCYV6wnn80G8wPKSVr+eKCapIu3Jun5NwfbKxD3VqKv9FfiofeP7H6VqQB0pcJ4/J5irfm7+/cLPKqgpNV3BpZsi/d9bGju5KuE07MgeCTL3ZMf6+mtND4wZ3P6Mj/5AE8z+cGhldX49KF688piNVmz7+ND1eQeRSWtzNLReN/jgks3x+lFG6L0/GxhMGdtlM5eHaWznn8vwb1ZftBfjr6V/Xpnb7mxvX84+mjfcHxB76qJtx+RpjP8dAMcxqODlePNN19T3/vvVo41e36eYj05c/L3J3Pd7ROv8V8KAAAAAAAAAAAAAAAAAAAAAAAAAAAAAAAAAAAAAAAAAAAAAAAAAAAAAAAAAAAAAAAAAAAAAAAAAAAAAAAAAAAAAAAAAACm3LX15I1D43vfunKs2VOoxfOL1ebVxXrynwrV5vJ9/7w/g/Vm3+SfEZnqFLbtnX3F1mTxZBZsbFy3cH304YFVjZ6+4Ymzekaab57MBaX0eD+tAIdgRXXPqwv1vQPFWvLhrOir2a9/lSXKkopMdwrVJL1qe5Iu3pKkCzbF6fz1UTp7TZz2l6O07+DzWJbv9JcbX8j+vbV95XiwZzh5X08pPc5POMB+pVJ6ZKGenFWsxTcVasn/VkLS0sLPsmR7nC7cHKfnr8uKvvKSiv6lppnlzr5KfENvZeLsM0bTY0wAoPtKvxbPyYbv7xfryUOKSFqdK29L0vkb4nSgEk9n4R8gcaO3Et3RW45mL9qZHmUyALm1vBafMlRt3pCV/g+VkLQ6S7cn6SUb43TmSBSw9F8w9/UNR+sGbopOMymA3MgK/8xCNflCNoQfU0TS6izZFqfz1sXtWPrPn+FoV99w41yTA+hYK6uN/7C/+BWRtP42/7YkndtJxf/c3N0/Ep1nkgAdY0V176lDteSObAg/oYik1bl6tOOL/9l7Bb4+MBKfbrIA7XurfzQ9plhr3pgN4UcVkbQ6g9UkvWRTnor/GXm8vxLdMrD6oVeaNECb3e6PT8+G8P9RRBIil98ap7NGoryW/9P3B/yktxxdYeIAbXHVX6jHq1z1S5ir/ji9cH2c/+J/bj579poHTjSBgDBX/bcn/2b/SX3KSII865+9uivL/+f5bu/q6J0mEdBSg2PJ+7Ih/M+KSEJk8dZkuk/t65Q0+yvxkIkEtMRQrXlVNoSbikhCJMcb/Q49lWjjEWk6w3QCpk2xmqxRQhLq3P4ufd5/0PsCfF8AmBbZAN6siCTUV/rm3azkD5T+cvSlWevSE0wrYOqu/GvJRkUkocp/7lrlfvCLgMafWwQAU1X+NysiCXXb35X/od0J8DgAOMzyj8uKSEJl8pO9Cv3QMvmpYRsDgUNSqDU/qITEbv8OfzsA4KXYf7Rvoogk1Hv+CnyKHgc4JwA46Nv+oxOvzYbwvYpIQp3w55CfqT0syImBwAGVSunR2RC+UxFJqLP9u/x432k7Nti3A4AXVag2P6mIJFQc9DO9BwWZcMDzl/+OvW9zxK+E/KSvkp7mNwN8Shh4jjSdMVRN7lZEEuTW/1iczhpR0NOe4egnc0oPnmTgAb9QrMfXKCLxyl83vBUQ3WLiAU+V/2j8hmIt3qOIJNSuf8Xc0jw+MBKfbvIBPvIjQTN3nav/1if+uskHXe7aevLGbAjvVUQSIlfe5uo/4IbA2SYgdPXVf3ObIhJX/12Zu01A6FIrx5tvzobwI4pIQmTJNuUf/q2AxrkmIbj6F2lp5rn6b4fXAneZhNBllnwmPSEbwhOKSEJk6XbP/tslAzdFp5mI0EWG6s1likiCvfe/0dV/G90FWGciQlfd/k/+pyKSUJnp1L92yn2LdqZHmYrQBYrjj/z7bAg/qYjEq3/ilUDopqv/erJaEUmozN/g9n/bLQAq0R0mI3TDHYBa828VkYRIIctAxQKgDU8GbJwxmh5jOkKOLa/Fp7j9L6FylXf/23gz4MRZJiTk+eq/2rxaEUmoLNxsAdC2qcQ3mJCQY0O15A5FJKFyvsN/2jl3mpCQV2k6IxvCP1NEEuT5fzWZ/Ba9om3fNHtK6XEGJeTQ4FjzLYpIPP8X+wCg657/x+crIgmVxVstANr/PIB4uUkJeVwA1JLfUUQS7PjfTRYAbb8AGI7WmJSQQ0O1eFwRSbADgNYr2HZPf7nxBZMS8nkH4C8VkYTKeWvcAeiA/J1JCflcADysiCRU+pVrJ+TRUik90rSEHJn82pcTACVUBquu/jslZ6954EQTE3Lkmtt2v0oRSaisGPMFwE7JzDXxKSYm5IgzACRklo66A9AxbwKsmni7iQk5UhiP3qWIJNghQNvdAeiU9AzH7zYxIUdWjjV7FJGEyhKnAHbSq4C9JibkSLHW7FVEYgEgFgDQdY8A4vcoIvEIQDwCgC4zOPbIryoisQlQbAKErlsAJL+siMRrgOI1QOgyS8cfPlkRiYOAxEFA0GVKpfTobBA/oYzEUcDiKGDoMtkQ/r4iEh8DEh8Dgq5bADS/qIjE54DF54ChywzVk02KSELlkk3uALT9GwDD0RqTEvK4AKjFKxWRhMrirRYAbb8AKMfLTUrI5yMApwFKuMOAnAbY/hmeOMukhBza/0ngx5WRhEihmqT9FSXbxmn2lNLjTErI7V2A5K+UkYTK+evcBWjj3GlCQo4V6slqRSShsnCzBUDbphLfYEJCrhcAewcUkdgHIJ7/Q5f5yM705dkgbiojCbIPIMtAxSKg/RI3zhhNjzEhIff7AOJdykiCHQi0wQKg7V7/q0R3mIzQBYbqzSsVkYTKlbf5MmD7vf8fzTYZoRvuAIymxxdr8R5lJKEyc0TptlHuW7QzPcpkhG65C1Br7lBEEuxY4I0eA7TP5r9onYkIXaRQT85SRBIqS7d7DNAuGbgpOs1EhG57FFCLv6OMJFTmORSoHa7+d5mE0I13AarNJYpIQmWJMwHaYAHQONckhC40ufEnG8TfVUYSKnPdBQiZu01B6GJeCRSvBHr1D+jeuwB/r4zEXYCuOvnv66YfcEShmixWRBIqV4+6C9DiPD4wEp9u8gFPLQLq8ZeVkQQ7F2CTuwCtSn8lusXEA35hcKz5lmwQR8pIQmRwLE5nOR2wFa/9/WRO6cGTTDzgGbJB/DFlJKFy+a3uArRg498VJh3wHPs3BP6VMpJQuXC9RcA05rOmHPCCCjsa7/AoQII9CqjG6ezVFgHTkO+eveaBE0044MUfBVSTRdkwflIhSai3AvorSnsK0+xdHb3TZAMOdhGwRhlJqCze6tXAqdv1Hw+ZaMBBe2o/QLxLGYlXAzs4lWijaQa8ZCuqe16dDeJ/UEYSKvM3WAQc8o7/SnTHEWk6wyQDDsngWPLLxWpyjzKSEClMfjb4ZmX+km/7l6MvnTGaHmOCAYelONr8t9kw/r5CkiCLgGqSzl2r1A++/Bt/PmtdeoLJBUzR44Dmm7JhfK9CklCLAHcCDu7KX/kD0/A4YN9xwf+okCTU4wAHBb34QT9u+wPT5rrbJ16TDeM7FZJ4O6DNdvvb8AdMt1IpPXqoltyqjCTkOQEOC3rqkB/v+QMtN1SPi9kwflQhSagTA7v82ODvOuEPCKZYT84s1uLvKCQJ9e2ALt0X8Fln+wPBXb85fVk2jEeyPKaUJNSnhGeNdEHxD0c/8UlfoO0MjsVnZMP4/yokCXM3INcbBB/vr0S3DKx+6JUmDdCejwRG02OK9eQj2UC+XylJqL0Bc9flaSEQf31gJD7ddAE6wpLPpCcUa83fzRYDDyklCZErt3X8QuDu/pHoPNME6EhLxx8+uVCPV1kISKgs2Ran8zppITAc7eobbpxregA5WQikxxVqzQ9mA/mrSklCZOn2JL1kY5zObM/Ngvdlxb9u4KboNNMCyK2h8b1vLVaTNdlQ/ifFJEEeD9z21KeGByoh7wzEjclP9vaWo9mLdqZHmQxAVxkce+RXJzcNDtWaX8oGc6KcpNXfF1iyPU4Xbo7T89fF0326YDPLnX2V+IbeysTZzu0HeNpjgmKt2VuoJv+xWG9uH6onf54N6YcVlbTyq4NXbU/SxVuSdMGmOJ2/Pkpnr4knv7L3Uor+sSzf6S83vpD9e2uzK/3BnuHkfT2l9Dg/5QAvwbXj0S8NVZvnrhxr9hSqzSXFavPq7H/fkC0WbnwqyYcnf++pxOdP/jmRqU5h297ZV2xNFk9mwcbGdQvXRx8eWNXo6RueOKtnpPnmyVxQSo/3EwsAAAAAAAAAAAAAAAAAAAAAAAAAAAAAAAAAAAAAAAAAAAAAAAAAAAAAAAAAAAAAAAAAAAAAAAAAAAAAAAAAAAAAAAAAAJBb190+8ZqV4803r6wmZxfHo9P2/fP+LK+lJ/ovBAAdaOl4elyxHv9Gsdq8ulBL1hdrzS8Wa8kPsvwsSyoy3Vk6GqcfvC1JL90cpxdtiNLz18XpnLVROnt1lM7K0ld+Tu7N8oP+cvSt7Nc7e8uN7f3D0Uf7huMLeldNvP2INJ3hJxvgWa7fnL6sUN87sL/s/yYbwE8qIWlVsr936ZJtcbrwljidmxV9X+V5C/5w80iWu/vKjVJvpfGBOdnfeT/5QFeavI0/VItXZoX/37IhHCkiaWVWVJN08dYkPf/mOO2fnsI/UOLeSvSV/ko89P6R3a8yEYDcK9SbH8iuuH4/G8J7FZG0+kp/8rb+/PVZ6ZeDlP4LZW9fOf7D3ko8/4zR9BhTAsiNyY152QD+WJa/V0TS6gyOJenCzXE6c3Vblf7zpxL9rK8S39BTevhkkwPoWPs28z1V/A8oImn5bf6s+BdsitOBSgcU/3Ozu3e4UT6n0nidSQJ0jOJoekyxGg9lQ/jHikhafsVfjfcVf39nFv9z9gpkWd1Tuv8VJgvQ1gbrzb5sCH9PEUmIXHFrnM4ayUXxPzs/6q80FpowQNuZfM5fqDW3eYVPQmTZjjidN/kKXznKd4ajXT0je041cYD2uOVf2zurWE9+qIgkRC7bkuTldv/Bptk3HK80eYBgSqX06GwAb1VCEmZ3f5zO3xB3U/E/I72V6HNzSg+eZBIBrb3qH514baGe3KWIJESuHk3S2au7t/z/NfH3Bkbi000koDXlPx6dlg3h7ysiCbXRr8tu+R/wkYANgsC0G6rHF2ZDeEIRSZjn/a76XyCP91Ua15hQwLQoVJPF2RB+XBFJiEx+rEfRHyiNkkkFTG3515JLsyH8mCKSELl4o/I/6M2B5XiriQVMVfkvUP4SKpOn+in2l7gIGG6UTS7gsBSr8UXZEH5UEUmIXLpZ+R/GIuC3TDDg0Mq/Hv9GNoQTRSQhcvlW5X+YeaJvOLrcJANekmX1xuuc7iehctW2ePLTuEr88PNIf2XiHBMNOCiTJ/w55EdCfsZ31mrlPYX5cU9p4rUmG3DgW/+15BZFJKEy72alPQ35syPSdIbpBrygQi25WAlJqCyy6W8683ETDnheS8cfPjkbwv+siCTIc//tSdqvpKczj/UNJ+816YDnufqPq4pIQmXOWiXdgnxz0c70KNMO+IXBerMvG8JPKiJxxn/OM9z4kIkH7PORnenLi9XkHkUkoXb9D3jlr5XZ3V+OXm/yAZO7/j+miCRULtzg6j9Afs/kgy635DPpCdkQvl8RSYgsHU2UcaBTAntvarzDBISuvvpvfkIRSbCr//Wu/gPmsyYgdKnltfTEbAj/iyKSEFm2Q/kHzuM9I3tONQmhG6/+681PKSIJlYs2KuHwaYyZhNBlJt8FzobwjxSRhMjyscTHftrkY0HnlOM3mIjQRQq1eI4iEkf+Sm85+h0TEbrp9n8t+S+KSELlPKf+tU8q0d+YiNAlltUbr8uG8COKSELk6u1e/Wu39JSjd5mM0AWGaslHFZGEyiWb3P5vw2wwGaEbFgDV5G5FJKEyc0ThtmHuMxkh5/a/+/+oIhIn/8kzNgM6GRDyrVCL5ysi8dU/8ZVA6DLZEN6qiCRULlivaNv4UKDPm5CQ7wXAdxWRhMqA5//tnAdLpfRIUxJyaHAser0SkmCv/3n+3/77AFZH7zQpIZdX/81eRSShcvlWz//bfx9AdLlJCblcAMTXKSIJlYW3WAB0wD6AkkkJOTRUS25VRBIq89dbAHRA/sCkhBwq1JO7FJGEypw1CrYDHgH8tUkJuXwEkPxUEUmo9Pv8byckMikhb9J0RjaEH1dEEiKFqjcAOiUXlNLjDUzIkevvSE9SRBIqK8YsADol/eXo9SYm5Mi19eSNikhCZdkOGwA75tPAI3tONTEhT8//x6PTFJE4BEgOlIGR+HQTE/K0AKg136+IJFSWbHMHoIM+CnSuiQk5MlRt9isiCZUrLQA65zjgctRvYkKODI4l71NEEipXbfcIoGMWAJXkTBMTcqSwo/EORSShsnTUHYCOeQug0vg1ExNyZEW1+SZFJKGyfIc7AJ2SWcPJG01MyJHrbp94jSKSUBl0DkDnvAZYevhkExNyZNHO9FhFJMFOAqxZAHRInugppUebmJAzvgUgITNrtYLtgNxrUkI+FwBfVUQSKvPW2QjYAfmySQm5XAA0RxWRhMrFGy0A2j6VeItJCTk0VEs+qogkVC7bYgHQAacAfsikhDwuAMbjuYpInAYoL/IlwJkmJeSQLwKKVwHlxd4AmF3a82qTEnK7DyD5njKSUJmzVtG2cb5pQkKeFwD15nZFJKFyySaPAdo4N5uQkOcFQDVZpIgkVD54m8cA7fsRoHiuCQk5tv9I4CeUkQTZB1CNJzeaKdz2y6Nnr3ngRBMScm6onnxDGYkDgcQBQNBtjwFqyccUkYTK5bdaALTfAUDREpMRusDgWPT6bBA/powkyIeBqkk6ULEIaJ/EjVnr0hNMRuieuwB/rIwkVC7aYAHQRof/3G4iQhcp1JKLFZGEypLbLADaJQOrogETEbrpDsBoekw2iO9XRhIq562xCGiDfPuINJ1hIkKXGao2b1BEEmwz4FYLgDa4/X+lSQhd6Po70pOyQfygMpJQme0uQMjNf/cs2pkeZRJCtz4KqDc/pYgkVBZvdTJguFf/4oIJCF1seS09MRvE/6KMJEiqSTprRBkHyA8XldJjTUDocoVq85PKSELlCgcDtf7c/+HGApMPOGLpeHpcNoi/q4wk3PHASrl15R990dQD/vUuQL35gWwQP6mMJESWjcZpf0U5tyDNvlW7f8XEA55hqNbcoYwkVBbe4lHA9KdRMumA53kU8PDJ2SD+Z2UkQb4RkGXOGiU9jfnGnM3py0w64PkfBdTi+R4FSMhHAQMeBUxHdrv1Dxz4UUA9rigj8VZAjjLcWGSyAQdUKqVHFmvNLyojCZWLN1oETN1xv/Gtphpw0K65bferitXkHmUkofYDnL/OIuCwX/mrRHd57g+8ZMXx6LRsGDcUkoTI4FiczlmrxA/jQz/fmlN68CSTDDgkK8eaPdkwjhWShMjysSSdvVqZH8Lrfv/Yszb6JRMMOCyD9WZfNowThSSh3gyY6XsBLyU/teMfmDJDY3tnWgRIqCzNFgGz3Ak4mNzbu2ri7SYWMLWLgGp0XjaMmwpJQmTFmIOCDpC/nbkmPsWkAqZFsZ6cmQ3j+xSShNkYmKRzvR3w3N3+5fhrPaWHTzahgGm1vBafkg3jv1RIEmQRUE3S+RssAp72qt8dv7khfbnJBLTEvk8IV5PfU0gSKou3JN1+bHDSV44HTSMgzCOBWvJhmwMl2ObA7Ul63pquvBvwdwM3RaeZQEBQQ+N735oN468pJAnzSCBOL97YNcX/RF+5sa2ndP8rTB6gPaTpjKFacr2TAyVUrtqe+7cEvtE3nLzXsAHa0srx5puzhcDnFZKEymVb4nQgXwcHPdxfblw3+ZEuEwZo/8cCtfjdvigoIc8MWLAp7vRNgrt7hxvlntLEa00UoONki4D3ZwP5q0pJQr0yuOiWjjtK+IG+cvypgdUPvdIEATpeYTx+T7YYGM2G8oRikpZ/Xrj61KOBue39dcG/yK74r521Lj3BxADyd0dgND2+UG0uz4by/1JMEuTjQjvidMEtbfNtgXv7yo3h/srE20wHoGsMjjXfMlSPi8V68l+LtXiPcpIQbw4s2hyn89bFaX9r9gvEfcPRrr5K9Ak7+gEypVJ69OR+gUK9+Z/3Lwi+nQ3oJ5SUtCzVbEGwLd63ILhw/VOPC2Ye3qLgoadu60efzn79eHaVf86iUnqsn3aAA1i0Mz12cCz69UItubRQbX4yWyDcWKw3tw/V4vHJNwwK9eSuyWSD+3OTv7fv96vx8L4/JzJFWTaarFm8Ja5etiW+fcGm+I8mc9GGeNeFNyd39ZXjG7Or+d/ur0RXT6a3HPX3DU+cZec+AAAAAAAAAAAAAAAAAAAAAAAAAAAAAAAAAAAAAAAAAAAAAAAAAAAAAAAAAAAAAAAAAAAAAAAAAAAAAAAAAAAAAAAAAAAAAAAAAAAAAAAAAAAAAAAAAAAAAAAAAAAAAAAAAAAAAAAAAAAAAAAAAAAAAAAAAAAAAED3+P+XqnsTjEBoUAAAAABJRU5ErkJggg==;" parent="64" vertex="1">
                    <mxGeometry x="15" y="5.000000000000016" width="50" height="50" as="geometry"/>
                </mxCell>
                <mxCell id="15" value="Data sources" style="rounded=1;absoluteArcSize=1;arcSize=2;html=1;strokeColor=#4284F3;gradientColor=none;shadow=0;dashed=1;fontSize=12;fontColor=#9E9E9E;align=left;verticalAlign=top;spacing=10;spacingTop=-4;fillColor=none;dashPattern=1 2;strokeWidth=2;" parent="1" vertex="1">
                    <mxGeometry x="-790" y="30" width="190" height="280" as="geometry"/>
                </mxCell>
                <mxCell id="90" value="" style="group" parent="1" vertex="1" connectable="0">
                    <mxGeometry x="-779.75" y="130" width="169.5" height="70" as="geometry"/>
                </mxCell>
                <mxCell id="4" value="" style="strokeColor=#dddddd;fillColor=#ffffff;shadow=1;strokeWidth=1;rounded=1;absoluteArcSize=1;arcSize=2;fontSize=10;fontColor=#9E9E9E;align=center;html=1;" parent="90" vertex="1">
                    <mxGeometry width="160" height="60" as="geometry"/>
                </mxCell>
                <mxCell id="86" value="" style="shape=image;verticalLabelPosition=bottom;labelBackgroundColor=default;verticalAlign=top;aspect=fixed;imageAspect=0;image=data:image/png,iVBORw0KGgoAAAANSUhEUgAAAgAAAAIACAYAAAD0eNT6AAAABHNCSVQICAgIfAhkiAAAAAlwSFlzAAALiQAAC4kBN8nLrQAAIABJREFUeJzs3XmA3GV9P/D3+5lNdmc2B4eIHIl4K6J4Fg88UPFA622gViDJboi1Wo/68y4p2qq11RallpDdLEc9EutZpXhUEBVRWwserVdFQKwHoCTZmd3szvP+/ZEENskeM7sz8/l8Zz+vvyDZnXkzfOf7fL7PCYQQQgghhBBCCCGEEEIIIYQQQgghhBBCCCGEEEIIIYQQQgghhBBCCCGEEEIIIYQQQgghhBBCCCGEEEIIIYQQQgghhBBCCCGEEEIIIYQQQgghhBBCCCGEEEIIIYQQQgghhBBCCCGEEEIIIYQQQgghhBBCCCGEEEIIIYQQQgghhBBCCCGEEEIIIYQQQgghhBBCCCGEEEIIIYQQQgghhBBCCCGEEEIIIYQQQgghhBBCCCGEEEIIIYQQQgghhBBCCCGEEEIIIYQQQgghhBBCCCGEEEIIIYQQQgghhBBCCCGEEEIIIYQQQgghhBBCCCGEEEIIIYQQQgghhBBCCCGEEEIIIYQQQgghhBBCCCGEEEIIIYQQQgghhBBCCCGEEEIIIYQQQgghhBBCCCGEEEIIIYQQQgghhBBC8GCTknWEEEIITYj7dkPiQ5pFZTgPlFfpX3F+7rXOEkIIYW6HbtbKymp9vbw1P886i3e0DuBVeUv+QxKfBFkS9Lnacr4Qa7jbOlcIIYTpHXZZXjE2ji+APAnSWE54+tj69FXrXF5FATCNvq35cSnjSyDLd/2pPlOd5IuxkRN2yUIIIUzn8KG8vEZ8HuBj9/2ZpN8n4Amjg+n7ltm8iiGAAywbzsdT+Oz+jT8A8LmVkrZhk3pskoUQQpjWpbm/Blw+tfEHAJKHCLiib7NWW0XzLAqAKfq25lUZ+DzBQ6f9AfIFlVX6SBQBIYTgxGZVKrv5OZAnT/v35DEs6fPLL8mHdziZe1EA7LViSz6MGVcAPHbWHyRfXFmlD2G7Sh2KFkIIYTrbcrnco8+CeNJsP0bygfVJfBabVelUtCKIAgAANqsymfBZksc39PPkmsoOXRZFQAghGBlRX3knPkPwlMZ+gY8pl/Sx6MG9SxQAm9RTLmnbgWNHcyL/qLxDF8d60xBC6LDzc2+5rk+RfFozv0bytPJqbWlXrKJZ9I1XeZUuIvmc+fwuyZeVV2NrFAEhhNAh27W03I9PknzGfH6d4NrysN7d6lhFtKgbrvJwfgfJdQt5DQJnl1dpCFIsqQwhhHbarqXlHfo4yWct5GUIvLG8Jb+yVbGKatE2Wn3DeU0Ct7Xq9QRtqa3nRpBq1WuGEELYa7OWVEr6GMgW7fCnSRLPGF2fvtya1yueRVkAVIbziQCuAdjiGaG6sLqer4giIIQQWmiTeiqrtQ3gC1v5spJuyyU+anwdf97K1y2KRTcEsGyz7gbhU61v/AGAL69s1QWtf90QQlikNqmnshofbnXjDwAkD091fWqxLg9cXAXAJvXUe7Qd5HHtexO+ojKUz2/f64cQwiKxXaXKal0G4CXteguSJ1Z6cHG7Xt+zRVUAVFbpvY2vGV0A8s8qQ/l9bX+fEELoVpuUyjt1CcAzOvBuL6kM5bd04H1cWTRzACpDWgtipJPvKejvagPp/3XyPUMIofA2KZVXaYTkWZ17U2UIz60Ops917j1tLYoegPJwPgnUhZ1+X4Kvj/WmIYTQBInlVRrqbOMPAEwCPrx8KD+gs+9rp+sLgMqF+SgCnwDYa/H+BN5YHsp/ZfHeIYRQKBLLW7V5ofuzzBfJFZPEpw/drJUW799p3V0AbNdSLMHHAR5tGYPkW8tD+TzLDCGE4JrEylZ9kOAGyxgEHzDWow8thh1eu/o/sLxDH2h6j/82IXluZTifa50jhBA8qgzrAwBfbp0DAAg+u7xKf2mdo926dhJgq3f6axnprdXB9E7rGCGE4EVlOP8DwFdb59ifMjOfOrqBV1knaZeuLAD6hvI9SV5PwOc4jvSm6mD6G+sYIYRgrTKc3wvwddY5piXdUlqCE3eenW6zjtIO3TcEsF2lBHzYbeMPAOS7K0P59dYxQgjBUnk4v8dt4w8A5DH1CQxbx2iXrisAyju0CeTjrHPMifzb8nB+jXWMEEKwUB7O7yTof58U8nnlofwK6xjt0FVDAH1D+YmJuBJgYQobQa+uDaT3W+cIIYROKQ/lt5P8C+scDZPGCDx6dDB93zpKKxWmoZzLii35sAT8c5EafwAgsGg2nQghBKCA9z2yLxMfwYj6rKO0UqEay9lMEkMgV1nnaIagL1Zv8jbzNYQQ2qu6HGshfds6RzMInlDJeq91jlbqiiGA8pa8kYkd3+p3IQT9T98kH/u7jbzDOksIIXRaZUT3QNa3AR5rnaUZop5fW58+bZ2jFQpfACwbzsdn4T9Alq2zNErSbbkHJ42vTf9rnSWEEKxURvQw1PU1kP3WWRol6Tb04MTa2nSLdZaFKvYQwIj66sJHi9T4Q9ot4IXR+IcQFrvqOl4n8GWQZJ2lUSQPRx3/3A1bBRf6P6Cc8ZckH2KdozncODaYrrZOEUIIHtQG+SkAb7bO0QyCTy6v0quscyxUYYcAKkP54SC+BbDHOkujJL2nNpjeaJ0jhBC8KQ/nEYJrrXM0TBqtl3jC+Dr+3DrKfBWzB2CTekQMF6nxB/Sp2s0sVJUbQgidUlvOjYCK0ztK9qeszdYxFqKQBUBlNV5P8OHWORol6brqErwM5zFbZwkhBJfWcHepBy+E9DPrKI0i+PTKlny2dY75KtwQwNKL8v17Eq4HWYgNGQT9Lic+osjdRCGE0CmV4XwihG8UZXK3oNtTxvGjG9KvrbM0q1g9ABJ7SthSlMYfkgicFY1/CCE0pjqQrgfwSuscjSJ4mBI/YJ1jPgpVAJSHtRHgE61zNErke6oD6bPWOUIIoUiqg2mroIutczThJeUhPd86RLMKMwRQvjgfg0n8N8kV1lkaInylugJPxRrWraOEEELhbMvl8i5cS/Ch1lEao1/2TvL4Iu3uWpwegElcWJTGX9KvUMIZ0fiHEMI8nZ5q9TpeImindZTG8Oixkv7OOkUzClEA9A3lM0g+xzpHQ6R6Ev+ouo6/so4SQghFtvuc9GOIA9Y5GkVysH8on2Kdo1HuC4AVW/JhBN5vnaMJ545u4FXWIUIIoRvUBvkxSIVpAwRswbZciBUM7guAyYR3kDzCOkcjBH2uOsB3WecIIYRuUq3z9ZC+aZ2jIeR9KrvweusYjXA9CbB/KJ8g4DqQJessc9ONPRmP2LEh3W6dJIQQuk3fZq1mSd8hebh1lrmpqjoeUDsn/cI6yWxc9wBk4PyCNP45Z/xxNP4hhNAeYxt5E8BB6xyNYQUlvNs6xVzcFgDl4fwCkk+xztEICe8Z25C+bp0jhBC6WW2QnyrK/gAUXto3lB9rnWM2PguA83MvhUIsp5B0Xa3Oc61zhBDCYlBeilcDutE6x5xIJuB8SG6H2l0WAJVlfC3Ie1vnmJvGU8bLsJET1klCCGExuP3MtCMLZwHyf7ga+ejKVp1pHWMm7gqAyoX5KEBvtc7RCAJvHT0n/cA6RwghLCZjg+lqAe+zztGgd+ECLbMOMR13BYCW4J0AXX5YUwm6avQm/r11jhBCWIxqu/A2Sd+zzjE3Hl0u683WKabjamyiPJQfReBbIF3lOpCkHarzIXtmpYYQQrCw9+jgb4Fcap1lVtJYPeP48XPSDdZRpnLVA0Di/d4bfwCg8GfR+IcQgq3qQLoe5CbrHHMi+0ol/K11jAO5KQD6t+SXAnS9ZAIAIH2yuiFdYh0jhBACUL0J7wFUgGXYfFH/Fj3ZOsVUPgqAzVqihL+yjjEXQbcmYqN1jhBCCHudx1wHz4JUs44yF1GuNgdyUQBUerAO4L2sc8yFGa/fNZB+a50jhBDCXcYH+DOQb7fOMSfypMpQfrZ1jH3sC4Dzcy+kt1nHmIugK6PrP4QQfKpO4r2Cvm+dYy4C3u5lcyDzAqBcwQaQq6xzzE7j9Tpebp0ihBDCDDZyQsI5kGQdZTYkH1Hequdb5wCsC4BtuYyEt5hmaITwrt3npB9bxwghhDCzscH0DRAXWeeYk3Ceh14A0wKgbyf+hOBRlhnmIuhH1RV8l3WOEEIIc1uS+CZJv7LOMRuSD+kb0RrrHHYFwKW5n8CbzN6/QQI2Yg13W+doq+0qLb8kF+CM7RDCQvRfmu9unaHd7ljH3wt4rXWOuTDjL7FdpsfdmxUAlQm+iuQRVu/fCEEXjw2kr1jnaLfKDv3d5CSuWjacXf//CCHMX++IjtMEvl0Zyv/POku7jQ2mjwq6wjrHbEg+sLJDL7XMYFIAHD6Ul0t6vcV7N0rQrT09cJ2xFSrDeR3I1xA8oQ58KXoCQug+fZu1ulTXlQBXg3h3ZTg/yzpTu+U6XlGAvQE2YZN6rN7cpACoEa8h6bqhYcbrd56dbrPO0U59Q/mxEC7c9+8EHzo5gS+t/KAOtcwVQmidvq15VSrpSpDH7fkTJoEfWTaiB1rmarfxc9IN7vcGIO9TWa2zzd6+02+4ckSH7K7rBpKHdPq9G6dvVAfS46xTtFP5onwsEr5N8h4H/p2k7ywt8al3rOPvLbKFEFqjfHE+hnVcBfC+B/2l9JMlJf5BV3/PN2tJpaQfgLyfdZSZ6cbqct7fYq5Zx3sAJup6tevGX1IRJpAsyLZcZomfmq7xB/asU52o6wuHbtbKTkcLIbRG5cJ8FOv48rSNPwCQ99udtc16IlpbbeSEiDdax5gd71nZibUW79zZAmBbLot4ZUffs1nEttpA+qZ1jHaq7MJWAI+c9YfIR4+X9PnDLssrOpMqhNAqlRHdQ0twJcD7z/ZzBJ9e2an3dCqXhdpA+iQE15O5Bb3OYl+AjhYA5Z04m+DdOvmeTZHGsvwvTVyIypb8ZoBnNPTD5Elj4/g3XKBlbY4VQmiR/kvz3ZX1ZYIPaOw3+LrKcD6rvamMJb3O8w6BBB9QHtYfdvp9O1cASCR9d60L+IexwXSjdY526d+iJ6PZUxfJx1X6dDkuzf1tihVCaJFlw/mIPIEvE3xQU78oXNg/lE9oUyxz1fXpOwIus84xG6Lzq846VgCUR/TcubqjLEn6TQV4p3WOdum/NN89J30YYPP/z8knVHbzc9isShuihRBaYPkl+fA68CWCD276l8lyJrZ39Xe8B28BVLWOMSPyCeWt+dGdfMuOFQDMvtfUk/yL2wbTTuscbSExT+CyBW27TDypXNK/YlsutzBZCKEFVmzJh01O4EsEHzrf1yD4oHKP/rGVuTyprU23SPg76xyz6XQ72ZECoLwl/wHIkzvxXvMh6XvV5Ri2ztEulWG9meDTF/o6JJ9S3oVPY0R9rcgVQli4lSM6ZIL4IsmHLfS1CK7t5vkAtaV4D6BfWueYxYt6R3Rcp96sIwUAE10//Sfhz7GGdesc7dA3rJMBtGwzDIKnluv6FM7Pva16zRDC/By6WSsnsr5I8hEte1Hhg127SdBZaRTA26xjzIgslbJe06m3a3sB0Dui4yC9sN3vM1+S/m10Q/qidY52WH5JPjxBHwHZ0nW+JJ9R7scnsF1LW/m6IYTGHXZZXjFe0ucBPqqlL0z21+va3q3DfdWbeImg/7LOMYuBlSPqyF45bS8ASnW9ttUNUCsReKt1hraQODmBSwEe246XJ3laZaf+JYqAEDrv8KG8fGw3rgB5Ujten+RDyrtwfjte29x5zBT+wjrGzLhsoq6NHXmndr74yhEdMpF1M0Cn68j1qepAeoF1inYob8mvZOIH2v9O+lR1kmuwkRPtf68QAi7QskpZVwB8fLvfStALawPpk+1+HwuV4fxNgH9gnWN6+mV1kse1+77a1h6AiYyXu23892wK8ZfWMdqhd0u+LxP+pjPvxudXevQRyxOtQlg0Ls39lbI+14nGHwAgXLhss/xu3rYQxHnWEWbGoyup/UcFt68A2K4SpFe07fUXivhkdSBdbx2j5TYplRIuBtjB9bx8UWWVPtTVe4qHYG2zKuUJfBbgEzv1liTvnnvwwU69XydV16fLIfnd9j3xVW1/i3a9cGWHnglyVbtef0EkMXuu/uavf7Ve27Gng6nINZUduiyKgBDaYFsul3v0GYJPNnj3l/RtzacbvG/7yXUv8CMrW3PrVndMo51DABva+NoLQ3xidEP6rnWMVls2ogdKTW7120rkH5V36GJsUsdPmQyha42or7wLnyb4VKsIzPjH/i35SKv3b5fqhnQFoGutc8xI7W1H23KjrlyYjwLx7Ha89oJJouuxn3narlLOugSk6SY9JF9WXo2tUQSE0ALn595y1icJnmoZg+ThIjZbZmgb+u0FkPDSdp7D0p6bdA/WAfQ5KYz8l9H16XvWMVqtcofe4GVGK4Gzy6u1xeJ4yxC6xnYtLS/Dxwk+0zoKAIB8XmUon2kdo9Wq69PnAX3DOsd0SK6oTGBNu16/9QXAnpv+QMtftyWUWVfXPf33X5Qf7K2KJbi+vFWbowgIYR42a0llpz5G0FVPqoD3Vy7M8z9TxClmbLLOMIu2DQO0vADoH9LTQN671a/bEsK/jJ6TfmAdo9WU8E8g3W3IQ3BDZbh7DxcJoS02qafSo+0An2sd5UAkD8ESvM86R6vt2Q1WX7fOMT0+tl1HNbe8AFCi38l/wLutA7RaZUs+G+QTrHPMiPyTynDuwIZEIXSBTeqprNJHAD7fOsrMeEb/sJ5mnaLVlDu1d0rz1KZegJZ2zy4bzkdk4Rcen0YFXVUbSKdY52illR/UobuX6kckj7DOMifpH6qD6bXWMUJwa7tKlR36MMi2jfm2jn5cXc6HYA13WydpGYmVrfohwPtbRzmQoN/VEo/GOo618nVb2gOQhbM9Nv4AQOC91hlabaJX7ypE4w8A5Gv6h/OfW8cIwavKTr23GI0/APD+lR16g3WKliIl4e+tY0yH4KH9db2o1a/b0gJAxGArX69VJP2wup6fs87RSuUt+Q/gea+FAwi6fbKOT1jnCMErCf8MqaVPeG32lt6L8r2sQ7RSbTkuEXSrdY7pCK0fXm9ZAdA3lJ9I8AGter2WEv4BpKxjtMwmJRD/BLAYa+2leso4Y/ycdIN1lBC8qg2m/wD4J9Y5GkaWUwndNb/n9FQDcKF1jGkRT1p6UW7p8ETLGhACa1v1Wq0k6NbaClxqnaOVysfqFSTbukVki711zyzbEMJsqoO8GFBh9t4n+OzycO6qE1VTxgWAxq1zTKdUam0725oCYLuWgnxhS16r1YR/2lvVdYXll+TDQbzDOkcTPlYdTG5n14bgTXWSr/G7JO1gBP4e5+de6xytMroh/VrCh61zTIdCS89kaEkBUN6hZxJY2YrXai2NJ6Gr1qHXJ/EXJA+xztEIQd+vLtE66xwhFMpGTiDxxYB+aR2lMbxnpR9/Zp2ilRKc7nVA3ru8NT+6VS/XkgKAwBmteJ1WE/Ch0Q3p19Y5WqX34nwfAH6PWJ5C0M468UKclUats4RQNNV1/FUmXgJo0jpLIwS8ZcWWfJh1jlYZHUzfF/QF6xzToVrX3i68ANisCgB3O1YBQKo7reLmqVTnuwAusc7RCAp/unt9+ol1jhCKamx9ugbA261zNILkIZPEX1jnaCXK7dLxNa3aYn3BBUC5hGeDbNtpRfMl6Mpu2va3fFF+DICXWOdohKAPVQfTZdY5Qii66k38a0BXW+do0Ct6h+VzG/h5qA6mLwD6sXWOg/HYvq14fCteacEFACmv3f9brDO0Ekv4O+sMDZF+VhGKs5QpBM/OY87EywT9zjrKnMilJemd1jFaShiyjjCdpNa0uwsqAA4fysshnNaKIK0k6baxXd2z6cyeZTZsScXXXpoU8dLbBtNO6yQhdIux9elmZJ+brB2EPH3vJmVdgUtxCaAJ6xwHEvFibFdpoa+zoAJgjHgeyL6Fhmg1Ev+MVyeX6zibtkk9LMohRhnn1gbSN61jhNBtahvSJyRdZJ2jEWRBeisbMHpW+g2ET1vnOBDBI/t36MkLfZ0FFQDZ6ex/1run+7+yWmd7PJziINLXqr9grPcPoU1qdb4Wkv+JteQTKlvzM6xjtJDL9iRz4XsCzLsAWPlBHUrg6QsN0Hr6RtdM/tukHghvsY4xJ6k2mbAe5zFbRwmha21kNQODkPxvay5sso7QKtUBfhHSz61zHER4ITZrQavC5l0ATPTqhU6XpLms1uajsgovA1mEWbWbYslfCO03NpiuBlCArYL52P5hPc06RUvsOUdm2DrGgUgeXlmiUxfyGvMuACR/S9Ik7aguwXbrHC2xXSVA/p/+oW9VV7Cr9lsIwbPqGN/k8on0AJLOtc7QKurBCKS6dY4DLbQdnl8BcGnuJ/HkhbxxO5D4SLfsPNe/U38E8n7WOWYl7WYd67GG7r4YIXStV3IX2fqjYVuOfEL/loVPVPOgtjbdAuJy6xzTeNZCNgWaVwFQnsTTAPo7/CGzO7r/Nyll4a3WMRrwjq6ZbxFCgYwO8EuSXK5RnyqnLuoFyP6GlwkeWR7Ro+b7+/PrARCePd83bBdB361u4H9a52iFvlVaQ/KB1jlmI+j71ZtZjOWJIXShvjpfL8j1WScET+kb1snWOVqhtpKXS/qVdY6DiPNuj+dVABB41nzfsF0IfsQ6Q0tIJPE26xhzSZmvwnksxEElIXSj323kHcx4o3WOuRBd0guwhnUSH7OOcSBCnSsAKsP5RIDHzvcN26We8FHrDK1QHtJzCD7YOsespG2jG3iVdYwQFrvqIC+FdI11jtkQPLUylB9unaMVcsY26wwHER7ZvyUfOZ9fbb4HwGH3P6Rvjq/jz61jtATxGusIs5JG1YM/t44RQsCeJWol/ikg13twCM7vaw0aG+Q1gG6yzrEfkiLn1SvfM4/fcVcAiN3x9N+/NT9E4lOsc8yK/KvaWt5iHSPMbtlwPiIDR5M4vC7cjcLdCCwH0SugF8BSCiUBEwDGCewGMAbidyJuVR23LiFu3VnnzdjIqvF/TphFdR2vqwzlzaDfQ7gInNG/Jb9hdENyPWdhTqQ0nLcTeL11lP3p2QAubva3mioAVmzJh00CJzX7Ju2lDHXH2v8svKYlhzy3jX5cXR5r/t04P/dW+nE8hIci4aEA7ifgXhTulbHniG5pbzfflAuLU/5huuuNApiAOoBKD6Ch/BsCNwD4GYj/kXB9LvG7XdPr1gWW7OZbd/fqJQTvZp1lWuTSDL0CKP4Ogcz8KJKvAkDA07FJPc3Oy2qqvenfkl+qxA81F63ddHV1ID3JOsVCLRvOR2ThJo+HK91Jek51MH3OOsZi1bc1r4JwcgJOlvB4Eg8GOJ9evJYQcAekb4P8egK+NrpE3+iWfTiKqLwlb2TihdY5ZiLpN7VRrO6Gg9oqw/knAO9rnWMqZpzS7Nyspm4eOeHZ3p5Qhe7o/s/An3hu/AVdVYvGv7O25XJlFKcg4zQAz4Lu2haaDr6IBFaCfBqApwlAZQKTGMrXQrgcCZdXB9L11hkXk9ovOFxerdcSfIB1lumQvHulX39cBbZaZ1koCdtIX3u15KRnA7iqmd9p/DaySam8Wr8leFiTudpIkwk4etdA+q11kgXZrqXlHbqR5D2so8xE0GPiqN8OuEDL+nv1XCWcDuHpnovCOUm3gPhEJj46to7f2Lunemij8lB+Ecl/sc4xE0HfrQ2kE61zLFT/UD5B5Pesc0wl6H9qA+n4Zn6n4QKgb2t+XBK/3nys9hH0hdpAKvyxk5XhfBbAS6xzzEyfqA6kF1mn6FqblCqr9CyQZ0N6DsiydaTW000SPlrPGN59TvqxdZpuVhnO3wT4B9Y5ZkLqqaPr05etcyxUeTh/39uS7Xpd9x4/J93Q6M83vAwwCe5OdmKXdP9DeIV1hBlJ9VIRjiQuoPJQProynP+islo3gPwsgJd0Z+MPAFxN8g09Jf6oPJyv7BvKZ2C7llqn6kbMdL05kDzf75pA+Wt/Sj14ajM/33ABIOCJzcdpJ+VSDz5jnWKh+i/KDwbpbGXFXURs3TmYfmSdo5tUhvOJ5eH8zyRuBPh2gKutM3USwScn8iPlHbqxMpTfsnJEh1hn6iajG3iVoCusc8ziucuG8xHWIRaKwKesMxxIaq6dbqwA2KwlBB47r0TtIly78+x0m3WMhVIJ660zzEiqQfhL6xjdon8on1Iezl8AeB3BP7acwe8ByXuA/OuJrJsrQ/nvy0P5aOtM3YKJb4bkdM4Fl0wKZ1qnWKjRwfR9b5sCsckH9YYKgL6SHgWwMr9IbVP8GembtUSevwjEUG0w/dI6RtH1DeXHlofzl0V+meCp1nn84TKQryHw08pwfu+yzfK5lr1Aqut4HeC3h5TAgHWGlpC3doj37BvK92z0pxsqAJK77n8A9PbBN69c0nNJOu0K00Qm/tY6RZEtG87Hl4fzZxN5DcFTrPO4R5YBvi736IbyUD4Pm+XtoaNQlPDX1hlmQvL48kX5MdY5WsBdO9RMe91QASDA2UY7+kWXrDF22/0v4dKx9elm6xxFtHJEh1SG8z9k4Hpi/kd1Ll5cRvLcSo9+1Dec/8g6TVHV1qdvC/qidY4ZeR7+bFB1Ob4MqWadY6pm2uu5C4DtKgF4/EICtYG7qqtZ5YvzMQR8LmGU6ll4t3WMIqoM53W76/oxwFcv9jH+heOxCfxwZShf3X9RdrXcqigk/JV1hlmcgUtzv3WIBTk91QRcaR1jqmbmAcxZAFTuwMNIrlhYpNZSLn4BwDrWgixZ55jB9vEN6afWIYqkd0TH7Z3gt9XvsE5BkU9Qwncqw/lcbNYS6zhFMjaYrob0Nesc0yG4vLKbL7HO0QK+2iPyfpURNbSp3JwFgJJ8jf9LY7XMf7eO0QJnWQeYliQC77SOURgSy1vyK0t1fT8m+LURuRTgeeWS/rOyNT/COk6hyO9cAABrrQMslLwVAACy1NAwwJwFAOVr/F/EVUU/nrQylB8O8P7WOaYj4Io9y1vCXPovzXdl4ZwcAAAgAElEQVQvD+tzTPwAyGJ3ZRYEyYdAuLYylP8fJAcnIvhX3ZCukORq29o7UU+oXJiPso6xEGOD6UZBP7DOMVVqcD+A2QsAiQJObkmiVumC7n8Ba6wzzITC+60zFEFlS35mnsB3ST7LOsviwyUg31Peqs832tW52BH4gHWG6TGpBy+2TrFgzpYDNjoRcNYCoH9EJ5A8vDWRWiMnXm6dYaHotgDQj6uD/Lx1Ctc2KZWH8ztAXE7wSOs4ixnBU5V1Xd/W/ATrLN5Vl+OfBd1unWM6fu+HjRPhql2icPzyS/KcbfesBUCWs6d/6KbxAf7MOsVClIfyo8C7jnX1RMIFcWLbzA7drJXl1foMwbeBHg7kDQSPTMK/l7fkV1pnce30VAMwbB1jBo8v+i6QY7twLaQx6xx3IjlZn7v9nmMIAI9uWaAWEPAV6wwLRp/VrqCdFeBi6xxeLb0o33+8pG/Hun6PuISJHygP55FYJTAzCf8IqW6d4yB7iulirwZ4dRoXca11jP0Ij5rrR+aaBOhqti27oACgfF7oBC6+bTDttM7hUd+W/PhSCd8AeT/rLGFmBNeWe/Rvh12WXS1b9mJsMN0I4l+tc0ynG4YBAPpqn4RHzvUjMxcA5+deEq4236jnYhcA5eF8EsjjrHNMZ7KOC6wzeFQezi9OxJcIHmadJcyN4FNr4/ha+aJ8rHUWj0ivkwHx2KL/P0uSr/aJcz/Az1gAlJfjob52MtMvC785jdOnf0hf3X1O+rF1DG8qQ3kDgW0g+6yzhMaRfAgTrundku9rncWb0XW8EtAN1jkOQhKlYq8GGF2OayHtts6xD8EjyxfnY2b7mZl7APLc3QcdpWI//QMAiOdYR5jBxdYBvNk7qWwzwMaOzA6+kKtSwtXLtuQHWUdxZc8k34utY8zA6/2xMXsmWn7LOsZ+Jmdvx2e+uTXQfdBJKngB0DusexN8gHWOg0ij1TFut47hSf9w/vO9m/vETP8CI3hUnbiqf2t+iHUWT7JwCSR3q30oPAEXaJl1joVwN1GdnLUdn7kAaGACQSeVepxNsGhSyjrNOsN0BHwcr+Qu6xxelIfyqwT+nXWO0Bok754z/n35UPZXfBvZs3OdrwNsAADk0nJFT7WOsRDJ24OqNI8egO1aSuCEtgSaB0G/3rWOP7TOsSCEyx3jkt/uwI6rbMlnEzjfOkdoLZJH1IEv9m3WaussXiRixDrDtDJcPig1arQX1wCatM5xJ85jCKCySyfsOXzDB4JXW2dYkBH1ETjFOsbBdMPoAK+yTuFBeTi/AMRwdPt3KXJVKulL/Vty7N4IYHSSn5C0wzrHgQifD0oNOyuNAvgP6xj7EDxqtu2yZxoCcDb+r69bZ1iIStYpIMvWOQ4k4cOx8x9Qvig/hns+C6/HM4dWIO+nhM9gW3b3Xey4jayC+IR1jIOQq/qHspve5/kQ4Ov45frMwwDTFwDOxv8lPxXVPLns1iLxMesM1npHdBwSPh1L/RYL/kFlJy6NkwQBCv9inWE6os/7ZaMk/Kd1hv3MMgxQgB4A5bFeXGedYkHksFtL+kl1IF1vHcPSYZflFamuz5G8u3WW0EHki8vDeqd1DGvVFfyigDuscxxIBR8GyMlZAaCZ2/ODC4BNShDcLJuR8MO94yqF1Dui40DexzrHgUSf1X/HSBwbx6Ukj7eOEjqP5JvKQ/K5MVenrOFuQJ+xjnEgAo/HZlWsc8zX7nX8qav5FcTDZvqrgwqA3mN0T1fj1XRWTTWpNKmGzmXuNC7yAqCyFW8E+TzrHMEQNbxsRA+0jmHK5TAAl/Qv0WOsU8wbKRDfsY5xJ2H1TAXVQQVAifC1XtbbeEqTRPg7q1z6WXV98nOBdlj/1vwUSH9lnSPYIri8XtfHcWnut85ipTaKzwtydwiYssP7ZjM8tVskKz2a9iCzgwoAOSsARPr5IOeBwBOtMxxI8Fj1d8ayzbpbzvhQzPgPAEDy+PIE3m+dw8yr0zjg74RAObxvNkPOeq4zpm/XDyoAOMMP2lAeW6L/sk4xX5UR3cPjEbIi3X3hOyWXdBHJGdfFhsWH4PrycH6BdQ4rAj5rneFAJB6DzVpinWO+Mn2tXEuNFgByVAAI+FGRJwDmLHdVrKTfjy3HN6xzWKgM53UgF+2NPszqotk2TOlmS3rwBUDZOsf+WOkr6VHWKebL20TAmdp13z0AnsZR5iHB3zgWgS9hDevWOTqtfFE+VrHNb5gBwbsh6yLrHBZ2np1ug/Bt6xwHSh7nTzXK2UTAmdr1/QuAC7QM5KznB3eUs3GUZrkcxyKusI5ggSX8I8Hl1jmCZ/zD8nAu9Jn08yXS3X3B5f2zGY4eYBvqAaj0Onr6B5CI71pnmK9DN2ulpwOV9lFp8RUA5aH8IoDPtc4RCuH9h27WSusQHVeXv/uC8Pgi79hIR+0XweWVC/NRB/552v+H5KoAyBmFPQFw9xI9EuDMxy0bEPT92tp0i3WOTjp8KC8nF/Es79AUgkeNl/Qu6xydVruF3xJ0u3WOqUgesnRE97XOMV8CfmSdYSqWeFD7vl8DlR0tARS0szaYfmmdY76UPW2nfCd/VX6bVcm3AjzaOkcolHP6t2Y3u6F2xHnMBL5gHeNAydW29M3pm/R1hH2e5gH/gB4APwUAnVVP8+DuwiXwFesMndQ7ouMIvcY6RygYspQz3mcdo9MEuDt2nT4fpBryu428Q9CvrXPsw2ke8PcrANwtASww0dmFK2nJOAt9rHKzSnX9DcBe6xyheEg+rTKcn2Odo5OS8FXrDAeZ5SS7IqD89AJM177vP0ZNuDm0hiru+D8u0DICrjYAEvGDO17B31nn6JTyUH4UyDXWOUJxCXg3NsnVPJ52Gh3gDwR5u0c83DrAQghy8yBL4qD5FHde3HtmrftZJiUWtwDoK+Nh3iYA0mN1317nWQcIxUbwwX2rtHiKSFIQXPUSEjysd0THWeeYL1c92cJBS/zvbKR2U8d2Ns3sEh19cE0i5Kv7H0Dm4ikAysP5JJKnWecIxUfi3MXUC0CH94k06e9+2qiUHD3Ikv0rP6hDp/7RnRe2euCoAFAeJX9inWL+6O6CZd3fF7tthE3WEUJ3IPigvtU63TpHp2Tia9YZDuJtPlUT6snXg+xk3/4P+ndVtvng7gFDN2Idx6xDzJvkawmRdHPtnPQL6xid0D+UTyD5LOscoXtQeIN1hk4ZW8b/ADRunWMqEg+1zjBf4zfwBk+fp+r7t/N3FQD00wOgIk8ABEDi/tYZ9lPwLZWbkYHXWWcI3YXkw/q35qdY5+iINdwN8PvWMQ7gZnVa085jFvBT6xh3KmH6HgDBTwFA4gbrDPNVvjgfA3CZdY4DFPZI5Wb0b8lHknipdY7QfbIWT2EpuTuC/d5FPhoY8tOeSZxhCEB+CgBkFLa7OmV/1ary4igAlLAx1v2HdqBw2tKt2dXS3jZydr9gz/KS7m2dYr5IR+2ZZpoDQEdzADx9YE3K8lcAQN6+0G2wZ6b2gHWM0KVIlsTFcX1lP8fY7jMpZ8OqzfHTnnGmOQCehgA8fWBNorMLVdCti2ECYOVYPR3gauscoYtJZ2OTeqxjtFtN/C6gbJ1jqum2sS0MXz3a0/QAbMtlgoeZxJnGRHL1gTXF03bKe3X/0z8AJAxaRwjdjeQ9yvfUs61ztN1GVl1tYANA3iZWN4El3Gyd4U6apgBYOurn6R8AdvcXtwDwdKASAEB+zqRul5UjOgTCH1rnCN2PGWdbZ+gEAtdbZ5jK3X21CROTftozkofg0ty/798TACzJfgoAQbfj9FSzzjEv27UUxHHWMabqglMV5zRRx/NBLrXOERaFZ+ECeVvl03ISfmydYSqHPasN2y26KQAAYPnuu9r7BAB14Ei7OAdx9WE1o7eqVd7OAMj09UVuB0Evsc4QFgmyr6+sru9tSvB13yB4JM7PxVzhs5FVT4csTRD32PfPCQAIuBn/h4pbAHDS0UqKvdKEry9yq60c0SEkTrXOERaPBHT9AUHZYc9h7zK6u782zFG7RvHO8wD2FQCH2MU5iJsPqlklT3spABC0s/ry9H/WOdppclKnASzuJiGheIRnYER91jHaqdzr78GB8nVgXZPctGtT2/sEACIOnfnHO8vVpglNkqe9FABAKPCBSo3JCc+0zhAWGbJcqeuJ1jHa6fYz0w5Bv7bOsR9v99fmuFkJIGr/HgDITwGgjN9YZ1gAVxVq108AlAjg6dYxwiJEPMM6QrvR2UTA5KyHtUm/tQ5wpynt/Z4hAEc9AEpwM1miaY4OVAIAEf9rnaGdKiN6OEFPE1jDIiF1f8+Tw/uHq/trMxL9tGtT2/s9QwDwUwCUsp8Pqmly1kUl3GIdoZ1yxpOtM4TFieTx/Vtydxef3u4fBR4CkPy0a1Pb+31L1txMAswl/N46wwL4qlC9fYFbLBGPt84QFq+c8DjrDG3maz5WgYcA5KgHAAdOAqSjOQC57uqDatye8eh7zPlzHcRSdxcAAh5rnSEsat1dAPh7gDjaOsB8Jfl5sOWBcwBEuikAlmS6+aCasfJirARZss4xFXucVfAt1HtRvhfBo6xzhMWL6u4CwOEDhJ/9apqkEt082Gq/OQCblCitsAw01a5f+qmUmjHmaBgFACDtHj2Tfmaetlgq4ZHWGcKi9whsl6uiv5VYd1YAkP1FPY0x1/3sBLjfKoCVR2IlSFrm2UfQTpzHSesc81HyVgAQ/wdS1jHaRniodYSwyJF9y3fovtYx2mV0kL+BtNs6x1TLVstNb3UzynU/Pdv7bQQ01utn/J+Oxkmaxbq7C9PXJh4tRuIh1hlCmOzm63DPA4SrXsTddPag1aDfnYMdgLJ1DgAA2bdvJ8tUSnDT/e9spmRTsrMLUyhuMdUQdfGNNxRHl1+Hoq/7SKnu54G1KaQ83ZP7S3uG/ZMm5eYYVcrPRIlmeVpJARS7N2VOe45dvpd1jBBIPsg6QzvR0fp1AKCzB61mePos65PoBYCk5OccdUFV6wzzlf3NAXBzsbXa0l26p7djl8MiJR1nHaGdPD21AkBOvh60miHATfumhKUAkEp01ANATFhnmC9nJypC8DPppNWW1HGcdYYQAEDo+mvR1X2EdV/32WaQdDOhcsnE3gJAdbgpACC4+YCaRWC5dYap6OyL20pi1990Q0GQPAKbVbHO0S501pNI+pmz1jy5ecDN+3oABHg6S93NB9Q0OiqkAEjq3gIAWGWdIYR9lpfUtdej/M0l8tReNcvNA672tlfJU8MlR10kzXJWSCERu6wztAuBu1lnCGGfCXXv9Uhgp3WGqUQ/c9aaJUcPuPt6/pMcFQCQny6SeXBVANQdVZttcLh1gBD2Yal7CwC5m5clV/fZpjga4i7t6wFI2U8BQPr5gObBzecIAFRxe1PmIkYBEPxg7uLr0VGjtZer+2wz6Oih7M5VACi5enJ1Vm02jqCnzxF0NOGkDQp7KEjoSl17PTL5abQAgM56Wpvk556sPZ9jkqMeAE9jJM1z1zVV4M9yDkLZOkIId2IXX4/eegDkp71qlhz1cO9r911NAoSjLpJmeZsE2M1DACxwN2DoPtKeXdW6UXb2IOHtPtskN/fkO1cBUJ4+ULq62Jrk6HME6t09BNC1N9xQQL4eolqK3noAilz8O/os013LANm151kvaoSPk6faoOBPAaHLsIt7ANzdR4p9xLmf7cuFHgBIkCats9zFz7bE8+DtiTsayRA6w1cj2ULuiu0iLxWnq4niE8CenQA9faCePqCm0NfniFKBP8u5EBi3zhDCPnI0tttqJVdDxMVeKk75ecDdN7cjwVHDxQLP8PQ0vgMAcvbFbTFXn3VY9Lq2IJWz5c3e7rNNcTRXZN8Da3L25OrrYmuCtx2z3HXdtZCn5TQheNrgpeUcNVqAv/tskzzdk/f1APiZea+Y4dlKni62liIwap0hhH3E7r0e5W1/E3/32YZ5at/IfT0A9DQJsNCNlptCCgDka4fHlpJwm3WGEPYhuvp6dHUfcdZj3RxHQ9zc++Cf6o66VIq8zaO3CzMJXXtGOdjVN9xQNMSt1hHahdnZLocF7gHwtIHZvn1iEuuOGi5n401Noa+JQAJWWmdoly5/4goF0809Uko41DrDVN7OJmiSnwfcvYWUq1UA8PQBNUmgq3OzAR5inaBthN9YRwhhnwz+1jpDG7m6j0jYYZ1hvuToAdflKgBPkySap99bJ5iKkKsvbksRN1lHCGEP5fFJ3Gydol3o7EFCxO+sMyyAmwfcKZMA/RQAFPqtM8wXs68LU86+uK2UhZ9bZwhhr19io5+VVK0mZw8SCXT1oNUMCsusM+yT9vUA1D31ANDXeFMzVIKrC5Py9cVtqYQbrCOEAABQd1+LdDaXSM4etJoh0k37tntKD4CbyWtUgQsAZxem6OuL20pjN/IWSEWeDBS6hNDdBQCczQGoL/E11NqwTUqUVljH2CdNcBwAUim7mlTh6mJrRkm+egAAHGEdoG3OYxbxQ+sYIZD4gXWGdhJwN+sMU/VO+HrQatTKI7ESJK1z7NO7dE+7n3IP/XygZD82O9t5qkH17G5s6mjrAG32PesAIaCbr8MR9RE8zDrGnSTtWMk7rGPMx1ivp95t5TvW4g4ASFX4enLtL8vRB9W4/pL8FFIACB6KbdnXJh4tRHXxjTcUhurdex32UsdYZ5hKwE6sYd06x3yUsp8CQMIOkAKAhHUcA+RmHkDa7eeDasZtg2mnt3Hp3h1w9QVuKeK71hHC4ibod7Vz0i+sc7QLJ33dPwjcbp1hvuhoQyVOeehPACBHvQCTLO48ABD/Zx1hKiZfX+BWKvXgW9YZwqL3TesAbUVn9w/iFusI85UdLafUgQUAHBUAdNRV0jS5u0C7dh7AzrPTbYB+bJ0jLF4ErrHO0E4lb/cPf/fXhrla4cYDCgA6msGeHXWVzIOr7sAkZxV8i6nLb8DBNxJft87QTvJ2/6Cv+2tTHO1x43oIwFWl1DxvFepx1gHaqdtvwMEzTY72dPkQgLP7h5w9YDVDjpa4HzQEQEcFAIAjrQPMV3Z2gYq4v3WGdqqTX7LOEBYp4VqclUatY7STt/uH/D1gNU64h3WEfab2+O+ZA0BHBQBxrHWEeUu+LlDC1xe41cbX8eeCfmSdIyxKn7cO0FYSKdzHOsZ+ij0E4KldO3AIwNUmNp4+qObU3V2gqzCiPusQ7UR1+Y04uCTgCusM7dQ3rNUgfd07sq8HrCa5add8DwHIzwfVLPXQ2QXK1D8hX1V8qwn/Zh0hLC6Sflu7md+xztFOJXnrPVQeq/OX1ikWwE27dvAQgK8NFtx8UM0a/zl+AWjSOsdUueTti9xa1ZX8soBCbg8aCor4FM5jto7RTpm4n3WGAxT22OXDLssrCC63zrGPprT3ewsAuamsSK44fCi7+bCach4nAfzMOsZUdFfJt9ga7ob0aesYYfFI4HbrDO1G+CoABBR2rs/u3b4eaom7elL2FADONlgYL/AwAJxdqCIebJ2h3Qh0/Q05+CDo1tHluNI6R7sJOME6w1R0dl9tRvbWnvXc1d7vmQOw1FcBoAIPAzisVB9uHaDdqiv4RcHXYUyhOxH4eFEPpGmSq/uGhCLv+umoPdNk9ef4zb5/SwAweiZ/6+kgGyVPH1hz6OxCJfDAbl8JgDXcTeBD1jFC9xMwYp2h3fq25lUkD7fOMRXl7sGqGausA9xJ+L+p81f27gNAOTvIprAFQHbXA8Cecl2uuvPaZMg6QOhugr5fG0jdvvsfWMfDrDMcqF7gAsBVj/YBByqlO//J0TwAeRszaULJ4YVKZ9157VAdSNcD+E/rHKGrDVsH6AQmb/cLjY/fwhutUyyApzMVZigA6GoN+72tA8zX6Ib0a3fL0uivom8LabN1hNClpFpPDy6zjtEhrgoAAT8t8rJL0tGOipqxB0BuCgASD7TOsBD0tz2tqy90u1RLvEzQrdY5QvcRcNmeI6gXAfl6YCjyCgBs1hJ4eqCdcQjA00ELwjG4NPdbx5gvCd+1zrAf4eHYrqXWMdpuHccg/JN1jNBlJPUA77OO0QmVEd0D5HHWOQ5wvXWA+Vq2FPcB2GOdYx/O1AOQ6agAIFmZxAOsY8wb4WubULKvb5ceZR2jE5Lwj4DGrXOE7iHgczsHU3GfQpugrJOtM0zD1/20CXXJVTtWP+BAJZeTAAEgq8AFgMMLNgkev9gtN7oh/RqLYKlW6BwlvMs6Q6cQ/u4Tkr/7aaOYfQ1nK8/QA6AeXwUA5euDa0Yt8XpvZwLA4Re7XTLxTk/7WoTiEvSFsfXpGuscnUNX9wlJv6oNJjdb1TdL8PUgO75ihgJgXLwFkjofaXp09sE1ZR3HBPzQOsZUAh4PidY5OmFsfboZjH0BQgvUsck6QsdcoGWQXE0ABPBf1gEWwtOEdkG34/RUm/pndw0BrOMY4Oc8e8HPBzcvzrqtCB7Wv0XHW+foFJXwTkhj1jlCcUm6vHZOutY6R6f0l/EYkCXrHAdwdR9tlqceAAo/OfDPpq4CgOhnG1sS9yv4E6u7Czdz8QwD1NamW8TFMXM7tIFUTxlvsI7RSdnjMKGzB6lmLNusuxE8zDrHPtO17/sVAL72sWelb1irrVPMl5K/C5cJp1pn6KRaje+S9CvrHKGQLho9J/3AOkQnUXJ3f8g9dHcfbdRkj69e7Ona9/17AJxtuJCSrw+wGWM9+A4kV6eGCXwaNsnNmtS2eyV3kXibdYxQLALuSHWea52jk1aO6BAAJ1nnmErQrePr+HPrHPOV4GsJYJ6zB8DREAAAIOOh1hHm7aw0CvqawEJgZd9qPMY6RydVb+IIoG9Z5whFonN3beSi2lFydx2nehv/p/BV6wwLdKJ1gKnSNA/4+xUA9ZKzAgB4pHWABbraOsCBCD3DOkNHncfMjA0Ol2UGj6Rv127iBdYxOs/ffUEseAEgR+2XpOokZ58EOF7hz12tn6ajD3AeJLq7gAk80zpDp41uSN+VYkJgmIsmQWwo8sEz80XCXQHATHcPUA3brpKrQ9iIW7CR1QP/eL8CAGtYF/G/HQs1F+E+h27WSusY89WzRF/1tLcCAEB45LLhfIR1jE6rLcdfAvqpdY7gl8D37j1WelHpH8onAHR1BLugndWVuM46x3z179CDAFasc+yjGSb4pwP/wNVKAJK7S3qEdYz52nl2uk3Ef1vn2A9JwV+133anp5rqONPbxMzgg6Tra8uxqCb+7SPgWdYZDiJcgzUs7HdVnrr/MfP8voMKAG8rAVTweQCEv3EsAS+yzmChdk66VsBfW+cIzkhjKeOPsYZ+hj87iXihdYQD0eH8qaYkX+3WTO36wT0A3lYCFHweQPZ4IQvPKPJxywtRu5nvgPRN6xzBDwFvWmxr/vcpX5yPgXwt/wOAnPw9ODWlqD0A060VNOXsg2wWSw4LALLcN4FnW8cwcR4nM3C6oNutowQHpE/WBtP51jHM1PEikM52XNX42E4Ud+mutwmAAOr1BguAngn+T/vjNOW+h12WV1iHmK/a2nSLIG+fKZIW5zAAAIwNphuZ8ceAFt1s7zCF9JO+Xqy1jmGJDocDBVyNV6dx6xzz1f97PdDTBEBA4+MrecN0f3NQAbBrI2+F5OdoYJLjYyzsREAAIPBv1hkOQpyGbblsHcNKdUO6AsLbrXMEK6oy4UW3n5l2WCex0r8lHwmP+/97vF82QSV3vdbfm2lC5UEFAACAzvaxT/L2gTaFwuXWGQ7GZeWdXHyrAaaoDvDtgD5unSN0mCRlnDm6Pn3POoqlDDwf4PRtgKEel/fLpjzKOsBUmuVApWn/50u+trCVzyq1YaMr+FVAu6xzHIjQH1lnMEWqugxnQvq2dZTQUW+ubUifsA5hLuEM6wgHkX62czC5WonWLHftVbMFAJydZCfhCYU+GngNd0P4d+sYByGet/cQkMXr9FRDic8FdJN1lNB+koarg+lvrHNY670o34vCk6xzTKPQ3f8rR3QInZ0BgFKzPQDOzrIneXj/iE6wzrEQkscLm7276/L3FNBh1XX8VUp8hqTfWmcJ7aR/rd3Ml1un8CCVeLa/2f8ACl4ATGSd7GtYRZO1nfjuTH87bdCx9elmQa5Ow8p1l9Vqw1TyOa5FLO5Z0PvsWscfEniGgDuss4TWE3RlNXENzmMcCiWR0FnWMQ4ijVWX48vWMRZCwBOtM0wl4X9mW1ExW6Xiah4AWewCYG9R5W+zEfKk5UPZ1bnVVqqD6b8EPAfQQYdmhAKTvl2r8blYxzHrKB70D+FJAO9lneNAAr6C01PNOsdCEM7aKXLW3vxZCoDZf7HTvFVW8yL8q3WE6UxGL8Cdxgb4tQyc5nHSZpgPXdtb56l4JeP/5145Of2+C5+1jrAgF2gZAGdL1jW/AkBz/GKnkbz7shE90DrHQlD8F+sM0yFwJrarZJ3Di7GB9JUsPD2GA4pOV1drPPV3Gxn/H/e5QMsovdg6xsGUWUehl+RW+vQ4gD3WOabSHA/yMxYAmb6GAACgPilf3StNqm7gf0Lyc9zyPuQx5R34Q+sYnowNpm9Aepqk26yzhOYJ+kJ1ks+KJ//9lcs6E6THc0C+Vn15+j/rEAshd8PUymO12Y9UnrEA2L2OP5Xkapesos8DAAABH7POMD29yjqBN7XB9B/1hMe6LNrCjARcUpvkc7CRMZfjQMIrrSNMR9nrfbFx3sb/BfxkrgJ45jkApMjZq4eO64ICgMB26wzTIfmUZcP5eOsc3uxen36SiMcCKu7hJIuIpLfXBrgWGzlhncWb/q35KSQdfseV2eNzeLRh23IZwqOtY0zFWTYA2mfW9YoSnO2QxqOXXpTvb51iIaqD6b8g/cQ6x3Sy06cDa7sG0m+rkzwFksviLQCQxpC1tjaYNllH8UqCz14+8avVdfyVdYyF6N+Jx4Fcap1jKnHu9nv2DQscnslcKuE06wwLJTrt7ou71YAAACAASURBVCLOLPLJi221kdXqYDod0BshTXuwRjAi3Qzx5OqGdIl1FK/6Nms15HOejyif98MmiA7bJc3dfs9aACyp46uQ1LpELaDin2PvdRgA4LLaONZZp/CsOpDeQ+FZMTnQB0FXJuKR1Q38T+ssnrEHrwDpcKWPcsoodvc/AMFXuyRoZ20F55zIP2sBsGNDul2Eq81rCDxx73rLwqoOpOsFuTzwgsCrYkng7EY3pC8CeKikQu9aVmyaBPS22k182q6BFFs4z+bS3A9p0DrGdARcPboh/do6x0L0XpzvQ9DXZmrCNTMdATzVnHsWs4FuhI4il5bLOtU6xkJRuNQ6w7TI+/Tt1BrrGN7VBtMvazfzVABvBhQTzjpKN2ThidWB9Nc4j9k6jXd9u7GR5OHWOaZDsfDDNqnu6+kfAMjG2u05C4AMXL3wOC3WBcMA6sElXseSKby50Kcvdsp5zNUBvhvCSZJ8rZjpRpIAbe5bioeNDaZvWMcphO1amog/t44xHUE7q0uLP/4PZ93/AJDZWLs9dw9Aj7MeAAAgTit6A1Vbm24R8HnrHNMh+ZDykJ5jnaMoqoPpv2o389GQ3gpoxoM3wgJIP8nEKdWB9PLbz0yu9ifxrLITawEebZ1jWsI2nJVGrWMsyKW539v6f0DjYzvR0LLlOQuA2tp0C6SfLTxU6xA8qjKih1vnaIGt1gFmwoS3WGcolPM4WR1M7ywJJ0pyWdgVkjQm6R3V5ThxbCB9xTpOoWxXCdIbrGPMKGPYOsJClXfjqQB7rXPsR/jWbCcATtXQucVqsDuho7pgGKBW52e8Hbt8Fz6mfyifYp2iaHYOph/VBtMzJT0vdhBcKH28XuKDaoPp3KKfEmeh/w6dDvI+1jmmI+m/a+eka61ztIC7dkhNDNs3VAC4mwgIdEUBgI2coHCZdYyZZOKt1hmKqjaYPlMdxYOz9Od+izyv9A1mnFIdSC8eX8efW6cpJImZeJN1jJkk+u39bAYdrv9nE/v3NFQA1OWwB4B49LLhfIR1jIWi424wgk+NXoAFeHUaHxtM76vVeC9A58bpgrOTdB2k51QH0uNGN/Aq6zxF1rdVZ5B8iHWO6WmCcLoKqgmV4XwiwGOtc+xHqpczrmn0xxsqAMY3pJ8KcnZSE1MGnmudYqFGz0k/8LzPvIB3WWcovFdyV3UgvWNpwnGQ3iqo0OueW066RtTzawN8RHUwfc46TuFt1pIkvMM6xoyEz3bF3g3C860jHIS87rbBtLPRH2+oAAAAOuwFkHCGdYYWudA6wIzIk8rD+QXWMbrBHev4++pgemdtF+4J6RxB/2OdyYxUh/TpnHVydTA9vrY+fRqkr11HC6rco0GvY/8AQOGfrDO0gojTrTMcRGqqnW54KV1lax6EuKX5RG0k1bkUR4+elX5jHWVBzs+95X7cRPLu1lGmI+m/ayv40EZ2lgrN6RvKTyRxDoEXu5tN3A7SzQCGlTFcOyf9wjpO19msSrlHPyV4lHWU6Qj6QW0gnWCdY6H6t+SHKvF66xwH02nVgfRvjf50wz0Ayrh8foHaiCzl3XixdYwF27NkY7N1jJmQPL6yU2dZ5+hGY4Pp6tpAellPxtGS/hSSv/M3FkjSDkGXATqtuoL3qg6m86Lxb49K0qu9Nv4AQOF86wytkJPD3mepVk28splfaWoznfJQvo7kic2lajPpq9XB9ETrGAtVGdE9UNeN3o6UvItuqu7C/RtdXxrmr3xRPlYJaxLxPACPA9hjnalZgm4HcAUyPl7r4eVYxzHrTN1u5Qd16O6l+hnJQ6yzTEfSbbXlWNUNSzorQ/l/Qd7bOsdUki6vDaamVsc13AMAAKDDXgDg5PLF+RjrEAtVXcdfidhmnWNmXF2p4HXWKRaD2jnpF2OD6X3VgfSk3kneTdBLBG0FdIN1tplpAtI3Bf1Vlh5Xu4lH1AbSH9c2pE9E498ZE73a5LXxBwAQF3VD41/emh/trfEHMK/2uakegL5hnZzgb08AQa+rDaS/t86xUJWt+RGQ42NNpVH14AG1tekW6yiLVXkoHy3i5PT/27v3KLmqOl/g39+uTrqrOgkXxdHxwciVyyzHAe/oncX1glfTAeThUhEmCEJId1WlUUSUkRFwLpgRUeYljiCE7k4QFTTiY110VNTRXGCU8DDyEJBHJAHlFWLS3ae6QtX+3j/SaEzS3VVd59Q+p/r7WYs/IF17f1fWos+v9tn7t4nDALyBZgcbsE/7k3ATibsNuM1ot4wv4m2d8Ms9q3qv9q9jDhvSu1rEGnN4dSf87sgP+382s9Tdr1Cv879WV7imviQ0109/LXP5UT5jsH2b+lziuD4qukNDp4hDYdjfDLPDQ+eYEnl9VHKnhI4hf9C9hq92NR7sHA4icQCBA2A4ALCXz744YI3AFgM2g3iUZhvhuZE5/DL/vN29ddDU0yBF8sP+R2bWFzrH1PiVqOhODp2iZaQVRvgYzF4VOsquSD5QKbnXNvu5pi/UKQz7r8AsdccfZlP9pFF+xJ9osFTfkOWN/3tiwKVuJUj2YhXn9Tq+CMR+dYdFOVo3c+xmHfPh0GXEDjOr1o1VAyZ8HVt7uuzZbcuxTcfysiELvzPoeWil7FLb76RRPUP+MOfsltA59kB+Jiq5pl/RNr9ctPM9Q+oKgFzOTgLw6dA5WlVZaN8sjPJhwA4MnWUq5vE5rOUbdSwwAwbt+XHgKez8pyFVAOhPLJHEaRULBv5L6BjTIm/uhIc/ADiXvmcfAJjZrPbnNbcJcOcHvpvGY0ok03csYzaWWh1Md/c9M3t9fjsHQ+cQmevyOZ4H2P6hc0zH0tyVsBlrmSPxN6Fj7Ilj4wtn16iv6QJgsoXjHbOZLElm9vrCav+G0DniEG22a0H+OnSOaRku7h3yLw0dQ2Sumn+1P8iAc0PnmB5/Nl52PwidIg75bTzWzF4WOsceiB9hqe2YzUebLgAAgLNcbkgcUQ4dIRYrrUam+3WGwfalwxWhc4jMSaR1OQzDrCd0lGlZh3z7B2AOpdAZ9qqF5/GsCgB4prIAIHEKVrEQOkccKvvYmsm2qSlmJ+SH/LtDpxCZa/IjfB/M3hw6x/R4RzTgUvmsaFZ+2L88rVfQsz775/GsCoBKyW4n+eRsJ02KmS0q5LA0dI5YLLUdJP4xdIwZGa7Y5/NM2bFQkc7Vs9q/CpbuFUIAoOHi0BniYsBymOVC59gdyQ2ttNWe3QqAGc1ww2wnTZQxncs0s1DpsuH0XcP8x8zsZTu6+a+hc4jMFeZxlcEWhs4xHZK/qPTb/w2dIxakASiGjrE3BrR0/HN2BQAAb1jbysTJscMWDPmmGyKk0s4Wqv8UOsZMDLa8MOyPCp1DpNP1jvhTzezY0DlmZLi4U/pI9I6wL5WtfwHUu1prHz/rAmCi324Bmcq2jj6tmzVmobIAV6X17/mPGIb2XcUALWlF5ob8sH+5Jy4LnWMmJDdUBuzroXPEhUjn5nKSd1WXu0daGWPWBcBkdZfK7lMElmEtU3qrXpNOchUYLgodY2a2f7WLV4VOIdKRSIPhWjN7cegoMzHgo53y7X/hF/yLARwfOsfeWAyXx82+AABAn87b6wy2X88o3xU6R1yihXYNwXtD55iZvacw4peFTiHSaQoj/IjBloTOMROCP4hK7qbQOeJSq2FZWq9orztr+TV8SwVAZYX7GcDHWg2RBOuUngAAsNTqRpwXOkYjCFzefY1/TegcIp2isNq/AYZPhs4xI5Lm7O9Cx4gV0/o6meur/fbrVkdpqQAAAKb0NYABSxYO+z8PnSMuUcl9h+CPQ+eYicEW5mr4Mi5iSq8lFcmQVSyQuA6weaGjzITAl6N+2xA6R1x6h/hWM/uL0Dn2xjOe1feWCwDEFCR2ZlY3fDh0jFgRf5fGexj2YHZofn9mYN+CSLrlu3iZwTLwRYZV1u1joVPEyRv/NnSGvSJpPp5TeC0XAJWSuwNkSzsRE0Msm9zE0REqJXcHYtj40Q4GXNA7wiNC5xDJqp7V/iSDZeJVJoHPTQzaptA54jJ5z0IqO/8B+GkrzX921foKANL7GgBm+frzeF/oGHGq13EByFld/NBe5jx4fc8qpvqmMpE06h32f+k8RkLnaATBrfOrdknoHHHqyuHDMLPQOfaGMX4JjKUAsJyl9lspgTM75kgggOoKt5GGdN//Pclg+7kufh2f9d2hs4hkxYu+6BcR+AbMekNnaYjHhdveb1tDx4jL5KpxSk8z0YPxdeGNpQCI+m0DwQfjGCtuZvaywnacEjpHnCo1uzitpy/2ZP8j34vLQ6cQyQTSJqq4Fmb/LXSURpC8q/K4fT50jjjVazgDsHReKke7uVJyv4lruFgKAAAwYk1cY8WNxs7aDDhoEWkfCh2jUWZWKqz2KT1OI5IehRGeD7N3hs7RGHoQ78NK86GTxGYt5xM4M3SMKZGxPmfjLACuAViLa7w4GeyQTtuQVinZt8h0Xsu8V8TlhSG+MXQMkbTqHfZLYPhE6ByNIjFcKbv1oXPEqbCNJxvsT0Pn2BsC2yJvse63i60AGC+7pwB8O67x4ubJc0JniJs3OwvkROgcjSDwsHPsmF3CInGr1+0hEJn4f4Tgs/OI80PniBtTfHTcyOswaFGcY8ZWAAAAiOFYx4uRAUd3zC2Bk6pFexSGT4XOMROC97t56BsrumdCZxFJq4lB21T36APSXygbcN72snsudI449Q77JWb2+tA5puTif77GWgBEi+x7AGM5nxi7nY2Bzg0dI27RGC4F+HDoHFMh+KA56xtf5p4OnUUk7aor3MZ6Dn2p/T0KAOR/RgO2OnSMuHlDatsYk7wrGnB3xT1uvCsAS63OFG8GNMNpHden/mxXheEDoWPsFfkQiL6o354MHUUkK6rL3SM1Qx/A2HZ7x4c15OzMTrnt7wU9w/5NBjsqdI4pWTKr6/EWAAAIjABM6a5Q63J1/H3oFHGLBtz3CXwhdI4/Qj7CLiyO88iKyFyxY8A9lCP6SKaqeCZxaSf1+3+BGVaGzjA1Rj01uy6JkWMvACZK7jECP4p73LgYcGrHrQIA6KnhbJBPhM6xEzd6h8WV5S4leUSyZ7TkHpwsAlLx+ozkPZVF9g+hc8StZ7X/XwY7MnSOqRD2ta2Dti2JsWMvAACASO9mwE5dBdg6aNtgabgCmY95YvHEgNscOolI1o2V3f3Oo49k4A20rBlwOpZaBtqQN8eIj4fOMJ0kn6eJFAATC+1bBJ9NYuw4dOoqQFR03yUYbnMOubkO65souYx0KRRJv/EV7j5HHEFyS6gMJC6JSu7noeZPSuq//ZMPTBTtlqTGT6QAwFLbYcC1iYwdC+tydfs/oVMkoadm54Bs/7dv8ok60Vct2qNtn1ukw42X3d2WsyMItr3nPslfVOp2cbvnbQfzaX73D7iENv/9fvzEBnY2lNTYcTDy1O4hf2DoHHGbfFfU1ra7BH9b8+irll1qjyOKZF3UbxvM25Ekf9e+Wfm8GU7HoD3fvjnbo2fIH2Zm6e0QSyb+RTqxAmCs3x4geFNS47fMLOecddxeAACISu4mkm3Zh0HwqZyzvh0r3K/aMZ/IXBaV7U44HEUgkU1heyA+GRXdL9oyV5uZpfzdv+G6pJunJVYAAIAx3dfWduoqAAAUgHNAPpLkHCSfzgF9Y/32QJLziMgfVAbc7ajzaIKjyc7E9VHdLkl2jjB6Rnh4qr/9A3CGf018jiQHj0ruJoL3JjlHS8xyzqX7HdBsbSm5UdBOApnIrl2CzzpgyVjR/TKJ8UVkapUV7mf0OAbgWBLjE9hWr+M9nbj0DwAGpvrSJYI/GB9w9yQ9T6IFAAAYkq9iWmHEyfnV/q9D50hCVLY7afho3OOS3OI8loyXXHqLO5EON1F2t3rDsSDH4x+dpeoKtzH+ccPLD/t3GOytoXNMx6w9q+eJFwDRQvty2rpZ/REzM5/uVxWtqBTdZQBvjGs8glsNOHK87O6Oa0wRmZ2JAXez0d4OMMZb4riqUnQ3xDdeilzELhj+MXSM6RC8Lxpw32/HXIkXAJNHAq9IfJ5WmL05P+TfHTpGUnJd6I/jchGSvzNvR3bieWCRrBov20+MeAfISqtjkbwncvahOHKlUf6VPMNgfx46x3SM7Vs1T74AAJCbhyvjrVDjZw6XYhXnhc6RhNHT3RYPOxlkfbZjkNwO4m1R2e6MM5uItG685H4E4F0Aq7MfhVGOOAn9NhFbsBTZdxX3gcNFoXNMh+BT0Ti+3K752lIAjJ7utoApu6xmD3Zgvotnhk6RlMluUh+fzWcJjhI4ulJ26+NNJSJxiUruJgDHt7Dx9wNjZXd/nJnSZKKLHzPYfqFzTMeAK3C2a6GIa05bCgAAqDl8BmTar5C8cNGQf1HoEEmJNtslBH/Q3Kc4Ro9jJkrup8mkEpG4REX3XRhOaLYIIPjFqOhSe5V7q7rX8NUGfDB0jmmRFVezK9s5ZdsKgB0D7iEYYtuMlgSD7VszdGSLYADASvPzPN4DsrF2veS4J46bKLtbE04mIjGJiu7bhJ0EsNbgR+6sLMBgoqECy9V5KWDdoXNMy3Dt2KC19Q6dthUAAOBTfiQQAGA4s1ObAwHA9rJ7zoB3znx+mJHR3j5Rcv+vPclEJC6Vkn2LwMkzFQEkn/bG43GSa3kDYVr1DPs3wWxp6BzTIpkjPtPuadtaAEwU3TqAKX+PbPNyKT8m0qrxkruXHqdP+UqGrBjxjvGy/aS9yUQkLpWiu8EbTp168y+fp9kJnX51t2vTmfqWGG4cLbkH2z1tWwsAAIBloPOe2fG9w35J6BhJqpTdNwjs5YYvVgG8a3JXsYhk2MSA+6oRywD63f+MxAeTvGo2DXqH/XsBe1PoHDNimHsJLMSkhRH/U8D+Z4i5G8dfRWM4pJ07MtuOtMIIvwmzd07++w4Y3hUV3XcDJxORGBVG/DIAawCb/NLHVVHRnRE0VML2+Tz33TGfD5jZn4TOMj1+Kyq640PM3P4VAABgus9i7mQH5RfY+aFTJMqMeeA0kr+cfPifoIe/SOeJiu5aACWQBHlLVLOzQmdK2o5uXpr6hz9J8+Geh0FWAACgMOJvAeywUPM3htVaHYd0+lW33UP+QAe8tlJ2qT6lISKt6R3yp6AbPxxf5p4OnSVJPUP+MGe4GWbBnnENIW+ISu5vQk0f7C+nd9gvodkPQ83fKII/rhRdX+gcIiLSgFWcl+/iXQb7y9BRpkdvdRwyvsLdFypBmFcAmGxdSawLNX+jDLa4MOxPC51DRERmVsjxnPQ//AEAa0M+/IGABQAAeGMG9gIABP6lkzsEioh0gu41fDUMF4bOMSOyngu0839XQQuAiaJbR/I/QmZohJm95HnDpaFziIjI1FydVwBWCJ1jJgSuD3Huf3dBCwAAIDNQrQEwoNgzwsND5xARkT3lR/yJZnZs6BwzIuue6eiHE7wAmCi7WwneFDrHjMzMwKs69cpgEZGsetEX/SIDPhs6RyNo+GK17B4OnQNIQQEwKSOrAPa6fC4b+xZEROaKShWXAfby0DlmxpqHfSJ0ihekogCoFN1tAL8ROkcjDDgvP+IPDZ1DRESA/LB/h5n1h87RoKuqRWvsNtY2SEUBAAD1Oj4y2Yc+3cxyBlyLVUz9RhMRkU62YMS/BMBQ6ByNILi1K2DXv71JTQFQXeE2EnZZ6ByNsYMKOXb0jYEiImnngatS3+73Dz6+veyeCx1iV6kpAACgQH6S4FOhczTo/b1D/sjQIURE5qKdDdrs3aFzNILkA5VN9vnQOXaXuj7JhRFfBGw4dI7G8PF5zg7e1m+/C51ERGSuyF/tX4mc3WvAPqGzNMR4XDTg/j10jN2lagUAAKJNtobgz0PnaIy9cofn5aFTiIjMGaTBYU1WHv4Ev5fGhz+QwgIAK80T+HDoGI0y2HvzI/7E0DlEROaC/DDPNLMjQudoDGs5j3NCp5hK+goA7GwRDPDroXM04crCGr4sdAgRkU42/2p/kLlMtWW/aqzs7g8dYiqpLAAAoF7HuZk4FgjAYPvRcw3I1O2pEBHpCGs5v8vhS1no9Q+k89jf7lJbAGTrWCBgsKMLIzw/dA4RkU5UGOU/w+yvQ+doGLEybcf+dpfaAgCYPBZIPhk6RxP+oWfEvyV0CBGRTrJzn5WdFTpHo0g+UNlsV4TOMZNUFwBbSm7UGc4NnaNhO7sEXt875F8aOoqISCfoHvIHghgJnaMZzuwsrLRa6BwzSXUBAADjRfclkt8PnaNRBvtTb7gOFzH1f7ciIqm2hj3O8DUzWxQ6SqMIfGG8aD8MnaMRmXhI+ZydAXI8dI5GmVlf/lX8eOgcIiJZlvf8NzP776FzNIrk0/M8U3vsb3eZKACq/fZrGv4+dI5mmOFjhWF/VOgcIiJZ1DviTzVYOXSOZtDhg2nf+LerTBQAAFDZZP8GcH3oHI0zR+BL+Wv8K0InERHJkgVD/rUkrgqdozm8cWLAfTV0imZkpgDASvNmKAF8PnSURpnZS6yGr+AidoXOIiKSCatYqBtugFlv6CiNIrmddbw/dI5mZacAADA+4O4hka1reM0OL+zPLHWuEhEJJt/Fq83sL0LnaNL5lRXu8dAhmpWpAgAAKuP4BMEHQ+dojp1TGOby0ClERNKsMMLzDPbe0Dmaw1srRbsydIrZyFwBgLNdlYYySIaO0hyu6hnh4aFTiIikUX61fyfIS0LnaA6rzqMMs4w9j3bKXgEAYGLA3QzDqtA5mmI238Bvdl/tDwgdRUQkTXqH/CFGfAlmWbtP5ZNpvuxnJpksAACgZz4+CvKJ0DmaYbD9XA43vnjYLwydRUQkDXqH/EvpcCNgC0JnaQbBe6OafTp0jlZktgB47jS3HcBA1l4FGOx1keF6dQoUkTnvs76bDt8EbP/QUZpC7jBiGQYtM6fS9ibTD6Go5G6C4TOhczTLYMflX8VsnWYQEYlZfgGGAHtT6BzNMsMFUcn9PHSOVmXtfcue1nJ+fpQ/M9hfhY7SNLIYldzq0DFERNqtMMLzAHwqdI5mEbypMmBHZ3Xj364yvQIAAFhqO7qIkwFGoaPMwpU9q/2bQ4cQEWmnbO74B0g+Y85O74SHP9AJBQCA0ZJ7ELAPh87RNLP5zuPM0DFERNrJPP42gzv+YYaBqN+eDJ0jLh1RAABAVLSrAX4jdI5mEPxxtBD9oXOIiLRTbh6OJ3h36BxNIa+Iiu7boWPEqWMKAADo8igDzEY7RmJdpWZvx0muEjqKiEg7jZ7utuRqtoTgvaGzNILgvVHOPhI6R9w6qgDYXnbPmbfTAPrQWaZF3hLN53EYtCzuWxARadnYoD3r5mEJyV+GzjItcsIRJ6PfJkJHiVtHFQAAMF62nxBI7+U75H9GE3YMlrnx0FFEREIaX+aedkQfyQdCZ5kKiXPHSy4TKxXN6rgCAAAqm+xCgOtD59gDeVtPN47BB2wsdBQRkTQYL7unrIY+gL8KnWV3BL9TKbvLQ+dISkcWAFhptXoOp5D8Xegov0fe3l23t012MBQRkUnRGe63JBYDfDh0lt8jn8ihszdpd2YBAKC63D1iDu9Nw34AknfNy9lRWwdtW+gsIiJpVCm537COxSAfDZ0FYJUOx48V3TOhkySpYwsAAIgG3L8DuDBkBpIb5hFHbuu39KxGiIikUGWFe9zXbTHAjUGD0M6oDLjbg2Zog8w1YpiNwoi/AbAT2j0vwbu7utA3errb0u65RUSyqmfY/5kzrAPsz9o/Oy+Piu6s9s/bfh29AvCCqGLL233elOB9OeAIPfxFRJozUXKP1WF9IDe3dWJiXbQpg11lZ2lOrAAAQPc1/jWujtsNtm/ScxG8383DW8eXuaeTnktEpFN1X+Nfk6thHcxekfhk5GZneGOnv/ff1ZxYAQAmNwUaTk56UyDBB81Znx7+IiKtqS53j9QcFhP8baITkROgdfymv93NmQIAAKIB930QFyQ2AfkQiL5OuixCRCSkHQPuoS5iMckkf6+uiMp2Z4Ljp9KceQWwq8Kw/yrMlsY6KPkIu/CWynL3RKzjiogIFgz519YNPzGzP4l1YPKyqOTmzHv/Xc2pFYAXRPMxEO9NVNzoHRbr4S8ikoyxsrvfefSRjG2ZnuR/RJvt3LjGy5o5uQIAAN1X+wOcw21m9pLWRuJjnnjLRMk9Fk8yERGZSu9qf7D3+LGZvbilgchHXd0OHRu0Z2OKljlzcgUAAKor3EY4HAeyhUt5uKlex2I9/EVE2mN8wN1jOTuC4HOzHYPkM3XibXP54Q/M4QIAACoD7nYQJwKsNf9pPl7Poa+6woXtWCUiMsdE/bbBDEcS3Nr0h8lxOBxXLbv03DsQyJwuAAAgKrvvASg29yn+pmboqy53jyQSSkREphUNuLtAHEWgiTtWWANx4lxo89uIOV8AAEBUdNcCOL+RnyX5ZI7o2zHgHko4loiITKNScnfA8yiSjd2y6lGa/NInUAHwe1HRPg3wc9P9DMGnckTfaMk92K5cIiIytUrZrSdwNMHRaX/Q84Ko7L7QpliZoAJgF9Em+xCAr+3tz0g+4+pYMlZ297c5loiITGOi5H5Kj2MAju39J3h5VHafam+q9FMBsKuV5qMxngZi3a7/meQW57BkfIW7L1Q0ERGZ2kTZ3eoNx+5xsou8IdpkZweKlWpztg/AdPZdxX0mcrzZzA4m+JwBfVHR/SJ0LhERmV7vEN9Kx+8AVgCxLhrn23C2q4bOJRmSv8a/Ij/sNxSG/V+FziIiIo3rHfZLCsN+/T5r+F9CZ5Gsuoh6RSIikkX6/S0iIiIiIiIiIiIiIiIiIiIiIiIiIiIiIiIiIiIiIiIiIiIiIiIiIiIiIiIiIiIiIiIiIiIiIiIiIiIiIiIiIiIiIiIiIiIiIiIiIiIiIiIiIiIiIiIiIiIiIiIiIiIiIiIiIiIiIiIiIiIiIiIiIiIiIiIiIiIiIiIiIiIiIiIiIomg6QAAAJpJREFUIiIiIiIiIiIiIiIiIiIiIiIiIiIiIiIiIiIiIiIiIiIiIiIiIiIiIiIiIiIiIiIiIiIiIiIiIiIiIiIiIiIiIiIiIiIiIiIiIiIiIiIiIiIiIiIiIiIiIiIiIiIiIiIiIiIiIiIiIiIiIiIiIiIiIiIiIiIiIiIiIiIiIiIiIiIiIiIiIiIiIiIiIiIiIiIiIiIyvf8PdoeIITBmCK8AAAAASUVORK5CYII=;" parent="90" vertex="1">
                    <mxGeometry x="10" y="7.25" width="45.5" height="45.5" as="geometry"/>
                </mxCell>
                <mxCell id="88" value="&lt;b style=&quot;border-color: var(--border-color); color: rgb(0, 0, 0); font-family: Georgia; font-size: 11px; font-style: normal; font-variant-ligatures: normal; font-variant-caps: normal; letter-spacing: normal; orphans: 2; text-align: center; text-indent: 0px; text-transform: none; widows: 2; word-spacing: 0px; -webkit-text-stroke-width: 0px; background-color: rgb(251, 251, 251); text-decoration-thickness: initial; text-decoration-style: initial; text-decoration-color: initial;&quot;&gt;data source&lt;/b&gt;" style="text;whiteSpace=wrap;html=1;" parent="90" vertex="1">
                    <mxGeometry x="69.5" y="7.25" width="100" height="40" as="geometry"/>
                </mxCell>
                <mxCell id="89" value="&lt;span style=&quot;color: rgb(179, 179, 179); font-family: Georgia; font-size: 11px; font-style: normal; font-variant-ligatures: normal; font-variant-caps: normal; font-weight: 400; letter-spacing: normal; orphans: 2; text-align: center; text-indent: 0px; text-transform: none; widows: 2; word-spacing: 0px; -webkit-text-stroke-width: 0px; background-color: rgb(251, 251, 251); text-decoration-thickness: initial; text-decoration-style: initial; text-decoration-color: initial; float: none; display: inline !important;&quot;&gt;sensors&lt;/span&gt;" style="text;whiteSpace=wrap;html=1;" parent="90" vertex="1">
                    <mxGeometry x="84.5" y="30" width="70" height="40" as="geometry"/>
                </mxCell>
                <mxCell id="91" value="" style="group" vertex="1" connectable="0" parent="1">
                    <mxGeometry x="-570" y="80" width="160" height="60" as="geometry"/>
                </mxCell>
                <mxCell id="92" value="" style="strokeColor=#dddddd;fillColor=#ffffff;shadow=1;strokeWidth=1;rounded=1;absoluteArcSize=1;arcSize=2;fontSize=10;fontColor=#9E9E9E;align=center;html=1;" vertex="1" parent="91">
                    <mxGeometry width="160" height="60" as="geometry"/>
                </mxCell>
                <mxCell id="93" value="&lt;b&gt;ingest/messaging&lt;/b&gt;" style="text;html=1;strokeColor=none;fillColor=none;align=center;verticalAlign=middle;whiteSpace=wrap;rounded=0;" vertex="1" parent="91">
                    <mxGeometry x="68.75" width="60" height="30" as="geometry"/>
                </mxCell>
                <mxCell id="94" value="&lt;font color=&quot;#707070&quot;&gt;pubsub&lt;/font&gt;" style="text;html=1;strokeColor=none;fillColor=none;align=center;verticalAlign=middle;whiteSpace=wrap;rounded=0;" vertex="1" parent="91">
                    <mxGeometry x="57.5" y="30" width="82.5" height="30" as="geometry"/>
                </mxCell>
                <mxCell id="96" value="" style="shape=image;verticalLabelPosition=bottom;labelBackgroundColor=default;verticalAlign=top;aspect=fixed;imageAspect=0;image=data:image/png,iVBORw0KGgoAAAANSUhEUgAAAgAAAAIACAYAAAD0eNT6AAAvq0lEQVR42u3dDYxdZ3oQ4G3Z0kCjkooAAQKEEiCI0AYIbVqF7ngmGzcE5KrWKlDTeiXHM2YjSNUghcUIuzuemWy9XS8bLW6Yv7amhE08M92aklKLDtRtndx7XbdEi6FWsYRBXmq13vr++Z6b+HK+e6+ziRPPj+f+nJ/nkT4l3s2f57znvO/5zve934c+BAAAAAAAAAAAAAAAAAAAAAAAAAAAAAAAAAAAAAAAAAAAAAAAAAAAAAAAAAAAAAAAAAAAAAAAAAAAAAAAAAAAAAAAAAAAAAAAAAAAAAAAAAAAAAAAwBCtrrY+vHK6ft9yqfno0pnokfDnfioAkHKLq607lkpvPblUjCZWis0DS6VocaUYnVwuRm/G43I8Wh88GpfiP56N//jaciGaDX9v/PftWSk0x0LR4CcLAAlzotS6OyTrpWJzJU7i9Vsn+dse5XgcWy40dr3y5dadfuIAMCRfOnPt/qVS87k4MZ+KR7MPSf9Wox5mFMIMw9LrtXtdCQDoszC9v1KInu1O57cSMQrR6eVStNtnAgDosZBcQ5JdLjYvJibxv3+cWy42drhaANADx880t3cW5yU28d88VsPuAlcOAG4n8b8RPRySaYoS/3tGWJAY1im4kgCwAWFhXZxAX05r4r9phMWJR1fOtu5yZQHgFkJznu5+/FaWxlIxOn+81HjAFQaA9yX/sMhvoNv5Bj3KYT2DKw0AH7qxwr9xOMOJ/z2fBELvAlcdgFwLXfXarXfzkfy/9kmgFC3qGwBALoVv4p298/lK/u9uIPRKoXWPSAAgP8m/s8XvSm6T/zujedFphADkQnjrzeJK/y2MNx0wBECmhV7+7d75kv77mgaJDgAyq32kroT/wUVAoTEpQgDIYPJv7pfo11sY2NglUgDIjKXSW09mvMlP75oFvRE9LGIAyMCbf+PBkNgk942OxiXbAwFItfaivzzv9d/CkcKiB4DUWilEz0rmtz0TsEMEAZC+5H+2dVecyC5L5Lc9zmkXDEDqhG1tkvjWxkox2iOSAEiNTre/qC6Jb31BYFhHIaIASMfbfylalLx7NQvQPCCiAEi87il/9vz3blw5UWrdLbIASPbbf7G5Imn3fC3AEZEFQGKtFKKHJOy+jKZZAAASS79/5wQAkMsCIDorWTsyGIAcWXq9dq9E3d+DgmwJBCCJb//PSNJ9ngUovfWkSAMgUVaK0UlJut/rAKJZkQZAcpJ/p++/vf/9H5dFGwCJEVaoS84DGqXmoyIOgGQUAMXoZcl5YNsBZ0QcAMkoAErRBcl5YGNVxAGQlBkA3/8H1g8gOi/iABi67tG/kvPgRl3UATB0+v8P4XCgs627RB4AQ3X8THO7pDzYEY5cFnkADNVyKdotKQ/6eODmiMgDYKjiZHRAUh50L4Bot8gDYLgzAMXoqKQ88GZAz4s8AIYqHFMrKQ/6E0B0ROQBMOwZgFVJedCnAkaLIg+AIRcAzVcl5UF/AmgcFnkADNVSMXpRUh70DEDzOZEHwLBnAPZLygM/EGiXyANguAWAPgD6AACQPyuF5pikPNjxpTPX7hd5AAx3BqDYeFBSHux45cutO0UeAEN1otS6W1Ie6CiLOgASMgsQNSXmAe0AKEbnRRwAiRCSkuQ8sC6AJ0UcAEmZATgmOQ9oBqDQmBRxACTCSrGxU3IezDj+RvSwiAMgEcKq9Dg51SXofo/mRdEGQKIsFxonJOi+LwB8UaQBkCgrxWiPJN3nBYCF5phIAyBRXim07pGk+7v/f3W19WGRBkDixEnqlETdt3FMhAGQzAKg1Hxeou7b9r+nRBgAiRQOqZGs+zLq+v8DkOxZAE2BNP8BILezAHoC9G5cXjnbuktkAZB4K8XoiMTdq61/0bMiCoB0FADxG2ucvK5I4Fs/+c/WPwBSZbnY3C+Jb3EUGrtEEgCpsrjaumO52Lgkkd/2OCuKAEjnLEAp2i2R3+a3/2JzRAQBkErh+3V4k5XQNz31f0L0AJBqK6fr9/kUsKlxzrY/ADJhudR8NE5sTcl93XHleKnxgIgBIDszAY4LXm80j59pbhcpAGSxCNAgSMMfAPImLAqMi4CTEv5NDX9K0aLoACDbswCdLoHnJP53xind/gDIhbDQbbnYvCj5R2++UmjdIyIAyI2Q+JYL0ek87/V/5cutO0UCALkT2gWH79+5++ZfaEya9gcg95ZLzedz0ieg7oAfAHiXsAc+TpDl7Cb/xqXjb0QPu9IAcHMRUGo8sFSMzmfvYJ+oaLEfAKzhRKl1d7dhUBY+CZRXis0DFvsBwAZ96cy1++MEeiytbX2XitGL3voB4DatFKKH4oS6mp7k33w1FC+uHAD0QHeR4NkEJ//VpTPRI64UAPRB2EZ3vBCtxmPoST/+b7i+VGyuLJXeetKVAYA+Gzl45a4nfqz69r6F2vUfO3Ht+hdPNwaW9H/mVxut6Z+7dn3PbPX693668j9dDQAYYAEwOlV5+8b46Ezl7d0v1a5P/ey16z/9K71P+gv/tdE6sFS//oNHa9cfm/7avzce51wNABhSAXDz+PsvVt/eO1e7/uyx+vVPfrF+Pbyxf/4/Xbs+u9pov8HfnOD/bfy/vfRLjdbnfuFa+6/9Z//+2vV//NO19lv+x/5V9e01/l0KAABISgGw3ghv8d/3452xlX+OAgAAUlQA9HAoAAB67enZ2r0T89WHx+eqT07M1/eMz9ee2ztf37Vvtj6yZ+7a/Z/4gu5qCgAFAMPz8cUrd40vNh4Iz6Txufruibna8+GPexcq2/cuVh76xGJFIyhY+yZq3TGxUN0RJ/vFOMkX43ExHq0NjnI8zo/P118bX6jvD4WBn6gCQAFAr4WEvnehOjk+Xz0ZP3MuxKO+iefUhYmF2un4BeboxFx97OBBR0GTY+MvXb27+1a/sskbaSPjfOdGrT/qJ60AUABwO0KSDsk6fp4c2eRLycZeXOZqx8KMpplMciOugp+Kg/9UPJo9vqFuNS6FqttUnAJAAcBGhFnEkJzjZ8eVAT2j6mFWIRQbfvpkUvsbWWd6vzWkUQ+zAuGbnauhAFAAcLPwkhBeFgb4cvIBo3oyfGpwNciEEMzt7/PDS/w3j8t752rPhnUHro4CQAFAeyHffP1Adz1RMp5Tc7Vj1jORWt0V/IvDrabXWScwX9/lSikAFAD5FL7xx2/cz4TPhAl9RoW1UUfMWpK25P9Igm+qmyrt+qwVuQoABUC+hIV3E/O1E6l4Rs3XzoWthq4aiRf2wPZhVX9fx96F2qpFggoABUA+tBf5zdffTNMzKixIDL0FXD0SPJ1Wm0nZTfWefbr75soPupIKAAVAdnUXI19O6TOqGdYvuYokbjotYQv9trA3t+pcdwWAAiCDun1Hmml/ToW1VT5bkqDkXzuXgeT/7nUBu11ZBYACIDu6q/wz84wKny0VAQxVu1NWehbSbGqqTRdBBYACICNv/p3mY1l7RrVCzwJXlyFW1an+5r9uB8GwldFVVgAoANKr04ckQfv7ez5bWZ1wlRn8jTVf35Xh5H+jGcdZfboVAAqAdAo7e/rQwz9xs5VhYaOrzcB09/nXM18AdMaKK64AUACkS+eE0drpnDyjLusayCCr6ks5ubE6Y6G+35VXACgA0iM0+MrVM2q+dk57c/qu2963lbNRV2ErABQAKUn+8/VHc/iMaoWdDq4+fRMa5WRhH+3tHs4hAhQACoA0FADt48ZzWADUruhoSj9vrJWc3lidbTeO6VQAKACSPUO5UN2R52dUODxIFND7t/9OC81WrguAhdqqSFAAKACSqduO/HzOn1NNnyvpQ2WdmxW1a7fhnKuPiQYFgAIggc+oTqvfllF7WTRgWq1PvQFEhAJAAZAsYQV87nYn+VzJIIzPV0+6qd6z2labYAWAAiBBctGYbHPnmcyKCnpQWV+5K7cr/289ZkSGAkABkKSXlNrLnkvvbQ4kKlBZ92ecFxkKAAVAoqb/y55LZipRWQ9mLDYeEB0KAAVAAl5SFirbPZPMVKKy1h5YAaAAyNtLSv7a/pqpRGU95HFKhCgAFACJmKW86HlkphKV9UDH07O1e0WJAsDVGGbyz2vffzOV9H0GoLbqJrr1cA63AkABMPSXlN2eRWs0LpuvLooSbndq7YKbaM29trtFiQLA1RjqDMABzyLty+lPAVB3E63VFrj2vChRALgaQ5ylnK8f9Sxac4hPNq/bAMgN5OQtBYACIMkvKSueQ2sfESxK2LR9c+UH3TwO3VAAKACSzCFl649PfKF1p0hhczfWXH3MzeP7mgJAAZDwGQDrlNYZjgdm8zeW1bUbGRdEigLA1RhqAeA5ZLcSPZ8BcLa2AkABoABQAGRgsXJ9TKSwuQJgobrDzbPeNsDaWZGiAHA1hloAXPEsWudT5WLlIZHCpjw9W3vEzbPuaVuviRQFgKsx1ALgnOfQOosAFyv3iBQ2Zd9i/T43z7qNgGZFigLA1RhmAVA96Vm09hAl3G517QZaewbggChRALgawxNa3XoOWadEfwqAS26gtfps1/eIEgWAqzE8exeqk55FazyjFmqnRQm3VwDM1c66idb6BFB9UpQoAFyNoX4CeMazaM2xIkq4zem12gk30JonbT0sShQArsYQZwDmazs9i9Y6Drj2oihBdd37cUmEKAAUAMMV2tzG92LT88gsJT329GztXjeRHQAZKAAK8fjF0anqq6OHypNhjE1X94weqvyDzqjuu/G/x78+0f5rpyv/TQGQmhcVOwE+eJQ/vti6Q4SwhZurVnQjqayTXwBUXx2bqjw3OlkefWzm2rc+frj1TR9qtb5uq/+egwdbX//Ewd/95o9O/v5fHJ2pPL5tqvLJTjGhADBTmfAGQPO1V0UHW7u5Fur73Uwq66R54vOtbwxJ+W++1PqGYf43jExffcDVMFOZzAKgvkt0sCWhjaSbSWUNZipTNZrjL129W2TQi5vrvBtKZQ1mKtMyqidFBT0xsVA77IZ6Z9RV1pAs++bKD3o2vacAeEZU0BMfX7xyl1O3tP+FRL+oaAt8Y5w/eLD1YRFB726uudrzbqzapVAMiQZI4CxA5wCzuva/tadEAz2eBWjd4WwA02qQ6BeVvH+unKudFQX0xfhcfbdpNSC5Lyr5/ly5b7Y+Igroi5AAx+frb5pWAxI7C5Dbz5X111x9+jwLUH0yhzdX0ZWHtMwCtD9XXszbvv/Qs8XVp/9FwHxtJk8L/8LiIlcdUjQLMF99OHTszFFr8glXnYEInwJyclRwc3y+/qgrDiksAhZqT+WkMdlRV5uB6h7DeS7jJ/7tdqUhzbOV9QOZTv4LtVWLkxmKPXPX7o+D8HJGb64jrjBkoQiorWR1Z5KupAxV2HbSmSrP1mpaVTVkQ3u2cq52Nmsnko4vNpxEyfBNLFR3ZGfBTf218MBwVbPrlULrnpVC9NDxM83tK4Xm2HKx8eCJUsubVJaLgMXKPRk6MfCStUkkSvfY4Isp3+t/2Jt/ei2utu64kdiXS9HulWLzwHIxOrpUbK4sF6LT8f92If51a43R7P41p5aLzVeXitGL8R/3t/9Z3UJhdVV8pHwm4FjKX1DetCuJJFfZp1K52t+Cv1RaOdu6a7nQ2BUSdpy4y+sk+F6My/E4FhcDO175spmiNErx0cErZidJtM4WwVSdymU6LWWWXq/dG7/pP7tSjE6239r7n/RvNepx8XEi/u/Y4xNCuqTts+Xeheqkq0Z6quz56jMpOJnr1NOztXtdrRS86Reih7pT+meHmPDXG6eWS83nv3Tm2v2uWPLtmys/mILW5lf2ztd2ulqkTvgkEJpUJHCXwPnwBuAKJVv7m35I+ut/u0/iOBePZ6wZSP6MZfeQs6SddFoPb/2OHyf1uv0CVhIx3T9XnbDQL9lC0gzT6svFxqUUJv73jKVidH6l2PAGl3Dt8wM6awOGfZJgM3xCDS9PrgqZEr61h85Vw5hGCx3Bwk3uKiRbWFwXkmbaE//NIy5oiivF5ogrnPRCoH2c8JEhfb5cCZ8lXAUyrb1lMFTb/W3OUQ5bfkI/cCtnU5D4S81HO9vvspX43zcKjRNhO6ErnvCXlZeu3t39NLDS52Ig7Jp6LsyS+qmTO2ERXmfBYPVkD9YKXBxfqL04MVcfM82fDsdLjQfa+/Sznvhv6jewVIoWw24GEZCGWYHWHe1dA3P12R60Pg/FxMrEfH2PNr7wvum3+qNh1WsoCsIimM6WwlActFfrXggVc/z/vxoSfWcWob47JHxTZ+kSts0tF6LZIW/jG/YI2whn9BNIj/BiEWYw9y5UtndmCOoHugudVyYWaqfbz6j2zGb9tc6zq34grDsKBUT8svOI2Ugg18KWvuVi82KOE//N482V07q7AZBhS4XGUwPq2Je2cdkiQQCy+ebfaeQj2a+xNiBsfxQpAGRC+Madw4V+WxlHNRACINXCSveEt+9Nat+Ak+GgIxEEQOp09vanv5vfMLsIhm2SIgmAFCX/aHfOt/j1apSPn2luF1EApCX5S969XBxYaI6JLAASnPzbLX29+fd+XPE5AIBECs1sfPPv7xHDFgYCkChhq5/V/oMYjddsEQQgMezzH+gWwSMiDoCh0+FvCKMU7RZ5AAzvzb/T219CHsLOgLDgUgQCMHDH34gedrDPUNcDXHKKIAADdaLUutuRvokYZxdXW3eISAAGYqkULUq+SVkU2DwgIgHou+Vi40HNfpLVJOiVQusekQlAfwuAQuOEpJu4g4NeFJkA9M1KsTki4SZzV8CXzly7X4QC0Ke3/+i0ZJvY8bIIBaAPb/+NnZJsskfYmilSAeiZ0H9+qRidl2QTP1ZFKwA9EyeWZyTXlCwILL31pIgFYMs6J/055jdNzYGcGAjAljnsx2FBAOSQlr+pHKdELgC3belM9Ihkms6hOyAAt18AFBqTkmlazwiI9ohgAG5LnEjOSaapPS74NREMwKaF1rKSaKpHPezgEMkAbMpSqfmcJJr2zwCNnSIZgE0JK8kl0dSPYyIZgA07UWrdLXlmYlzRFAiADQsryCXPjHwGKDTHRDQAG7JUbK5InpnZDnhERAOwrk7v/6gueWZlNC+KagDWf/vX/U9XQADyZ7nY2CFpZm0dQPSQyAZg7RmAYjQhaWZrHD/T3C6yAVi7AND/37kAAOSwAChFi5Jm1gqA5gGRDcCa4rfFk5JmxkYhmhXZAKwpThhvSppZKwAaJ0Q2AOsVAJclzcytASiKbABuKfSNlzA1AwIgZ1ZO1++TLLM5RDcAt7Rcaj4qWWZzLL1eu1eEA/DBMwDFxk7JMqPNgN6IHhbhACgAFAAA0OEgIAcCAZDHGQCLAC0CBCCfJMsMjlJ0QWQDsE4B0LgkaWauFfBpkQ3AejMAZyXNjG0BLDZXRDYA680AvCZpZm4cFdkArMlxwI4DBiCHQrKQNDO3CHC3yAZg7RmAYjQhaWasCdCZ5naRDcCalouNHZJmxj4BFKKHRDYAa88A6AaoCyAA+bO42rojThpliTMrWwCj86IagI3NAhSbK5JnVnYAREdENAAbslxo7JI8s7IDoPmoiAZgQ06UWnfHyaMpgaZ+XF5dbX1YRAOw8VmAYrQqgab8+38pWhTJAGzKSiF6VhJN+2jsEMkAbK4AOF2/TwJN9aiHHR0iGYBNczKgEwAByKGlQmNSMk3t9r89IhiA2xJayEqmqRzNsJNDBAPkzOjkV/9Cr/5Zy8XmRQk1deNUTy5+q/V1j81U/7o7CiDhHnvh9/7I6FTls/FoPDrz1W/pUQGwX0JN2Sg0dvXi2n908vf/YhxLzW2Hyv/miU+W/5g7DCBhDh5sff3YZHVidLry/+IH9tvtcai6rxf/7M7ZAI1LEmtqxtmezSRNVf/1O/E0VbkyNlV5bvyl1je44wCS8NY/WR6JH8xn3/WgvjEu9+rfsVyKdkusaVn81xzpxTUfOdj68AfEVBj/Iy42/647D2BIvvdg/b74De3VWzyku7MA9T/Xi39XaCcbJ5c3JdjEN/55rWdv/4eufvdasbXtUOW1x6evPuBOBBiQxw9/5ZtGDpUn44dwbc3k33lIf7pnswDFxg4JNuFv/4XooZ4VAFOVX14vvsJak9HpypGRg1fucmcC9NFHpis/GD90L27gwfzO+NgrrT/QuyLA+QB56Ps/cvB37txMjMXjdz4yWf5HYS2KuxSgh0YP1b5jdKr8a5t8KHc/A9S+o1f/HUtnokck22S2/Q2tm3sXb5V/cFuxNl35jbEfLW9zxwJs0fap6p/cdqjyk/HD9a3beiB3RqGX/03LxearEm7CRqlxuGcXuNX6urCAdAvx9vbYVPn445P1P+8OBtikJz7f+sax6eo/jx+mV7fyIL4xRnq4WOtLZ67dHzrNSbyJGVdWzrbu6tnb/0zl8V7EXGeNSvlQWLPijgbYgG2T5e+PH5y/3aOHcJ9mAaKjEm9S3v6bzyfp7f8Dxv/ZNlX5IXc2wC089qnKX/vIdOU/9/jh2/MtgUHoM79UjM5LwMPu+Bed7uWRv+tt/dvieH3bp2rf6U4H6BqbvvpHt02VQ8e1qI8P37gAqJzo7SxA48E4CZUl4qHt+b/0SqF1Ty+vaRwnv9XXGJyqvDU2Vfmpjx6o/il3PpBbodPa2GTl2fih+Lt9fui+Mx4/VPszvfw9LJXeetJ6gKGM8vE3ood7mvzbO00GE4fttS0z1f1hrYsnAZAr216obI8fgl8e4AO3L7MA7ZmAUvN5CXnAe/4Ljad6fR0H8Pb/AaP829tmyjs9EYDM656u9nODf9C+qzvgC5Vv73kRUIyOScwDS/6TPS9ID1V3DDMm4/FLY4cr3+YJAWTOEwd/95tHpiuH4wfdtSE/aMO42MvugEH7xMBCdFqC7nPyLzZXeh2b3/XZ1h+KY6KSgLhsjk6Vj4585urdnhiQI0uv1+7tdJlr7FgqRhMrxeaB0No0HG4SjjftHkdbXy5FF7rtaF9eKUZH2tPPpWh3OAEt7E9/5cutO5P0+2qFbVUz1afjh9tXEvCAfdcZAeV/0uvfa1iQ5tjgvo43+xHfNx35m4TxeyOHKj8c1sgk6V4OvRaOlxoPrBSaY53TMZv742fVi93GWKe6z6Zm/OuL8bOpuFxonIiL4tnwLIt/vSeslwnrNnq9cBNSp3vG/I5Oko8u9/hBeSrcnKEgGObvcWz66t+OH2ZnEvZw/VpzoD4c4BIecHYG9GfFfy9b/d7w2My1b01qfMbjv39kqvrEUJN+IXoofHLpvIT08no2L4ZeGqGYCCdtyghkXtg73q6Ei82V9tv8QKZMo/NxJT6zXGo+Oqjf52Mv1P/stunKv0/wg7VvCwLbszmFxlMSdk9Hsy/x22n681tJj9Oxqcp/iIvpvzSIezck45CUu2/2Fwe1o6O9hqbQ2JW0GUzY8rTZUqn5XOetfNjbxRqXulNyI/34vX6s/S21fDB+aFUTn/zfKQKufndfrnuxsdNMQI/e/PsUr6E7X2ritLN25jOPvfB7f6QfP4vuUddhIeuVoR/qVIxOhs+gvWzwBIOf4u9sD7uS0Ifrai/PTo8fpj8Qj/+dogfqjVF5/HCrL73aw893gG9Rmfzm349p/2Dkxyr3pDBWw/jKtpnqeFhb05tCtTnS++n9XhZ/0R6fCEiNEKydBTKpWQx2bCtrBUY+XX04fuv/lZQ+TG+MX/5Qjx6oN2svDLQ74DZa/DZO9Gs6OOwACTtBUh2zhyq/PvpC+Xu2Vpy2FxinYOdHaLnd2CG7kGjdrnBvpvEba9hRENYobPT3OjZV+RPxmN/iMb3J2RUwVflkP4vC7mJPiX1I+/xvit35LMRsd3xxM2dchBmVFMfiqUGuZYKNJf729r321rzUH6sadg+s9e3tYwdbf3B0pvL86FT19zP0EO1bg6D3FojttSDaBq+1GKzQ2NXPa5CAhj/9GNWxqfKn/t7B1h9eay3ScqlxeFCLj/vdCyJsR5R5GLqwxzWDD+JzH/RZYNsL4eFZPp/BB2jf1wPccPxMc7vFgR/8vbfXvf0z9N1/o7NY/3vsUOV9BVRna2rm+lOEWcs9MhBDEb5PhmY8GX4oXwnbgdqJ/1Plvxo/YH4xyw/PQawHeOeBHL+9OEr4ayM0jel3c5jQVCf13/03fr7Ar459qvq3wu87zKhk4a1/jdg5YpEgg53yf712b7vTVQ72X//LpWv/pe/H9CZv3/V832eOMjQl289PTj3R2e//y3mK4cemK29Nf+nab+Rk9ui1cD/JTAzoe3++2r1O/ey16/ED5e08PUC3Hap8eiCfkL62KCtPawPqm110uhWjU9VX8xS72z9dffuz//Ha9ZwVk+esC6CvOtv78vnG9uIvXrv+5OFqroqA0UPVfQNbS5KibVnD3Ha66eR/qDKTp5j9vh+vvD272sjtjFJYYyNT0fvkH9rp5vxb7U+eilo7P5eXIqD8a6OHat8x6DhLdmOW5DSe2qjHD5Yf3DZdOZmHmP2H/7r29s/8aiPva0rCTNozMha9m/bvbN+yYKtbBGR8JuDi2FTlHw495gqNpzKyUPDsjcWkwzQ2Wf2+LO9g+f4j1bdf/rWGZ9TXekk8JXOxZd1tW/Zu3/Q5IINrAqojh8qTa+2lHrTOwSzRsymdEQjHw+5O0r0celiMTFf+WdZ6WIRv/vP/RfK/uafEMGacyFLyLzUesGf71gsDs/MQrb76vQf703O+V8J3824xsJrQgrTeXo0dTrt8vXZvkn+W3X4Ai1noYhkK8c/9Qu4W/G34yOF+by8lo9qn+Nmrveb4xz9du57y7X5nH5ssj6QtNsPq+fB2Pchjpdc6xjVMt6bxGNewVz7smU9zDO9/pS75r3mmRHRanwA2P/VajE66gdYexwtR64d+IoVFwHTl/41NVicOHmx9fdpjtX3qZDjKtRDNxtfk8iDeqsJZ8eG7flYerKF7XhpPsvzET9Yk/42sByhFi7IaGxYHzVE3zsZGWHgUFiCl5KHZiMdn+3WmeiIK19P1+8KBKSvFxs72J4NCY6bbZyB8Oji3zvHUl9tH8Ibz2OO/JxzKE1ZUhwIj9L/o19G8SRDWfoR++mEtSBpi+Qe+UHs7FOCeQRscpebzMhvrJ//OXn83zCZGWID00ZlkPzA/cqjy89smr/5lEd6ZNQjJvL3lMBQL8Z+bJu0IJ+u1T9hLcCz/3cPVt/+t7X6bPzsgAbtRSPh3/8FMo2Zv/NN/V0/qp4Bz26arf0d0s6lC4IXy94weqvx6EmN6csWiv9vtFqjQ5Za6U55ulNv8FPDEjyXqU8DvjR2q/Eg4BEZkcztardbXbZupjsex9JUk7fc39b+lw4OcIMj7he0iOT+YZcvjwFIiZgGa26bKP/HEJ8t/TFTTC08c/N1vjuPqM/G4Nuz4/szPN7z9b/HY6b4fPkX6dFdRu0G2MF59IxrqgsBt05XVbS9Uvl000w9j01f/0thU5T8Ms9Wv50xPdrLsF828o9vwR7e/Hozpnxt8g6BtU5X/9ZFD5Y+JZAbhI1PVJ+K4+++DjvPQgdMzpjeHBg3qJEpSoNtQxY3Ro/HU5wc1C1Atj0xX/8XIQVN6DFZYWzJyqPLDYa3JIGJ9z2xV8u/tWoAjopgbp6+5KXo4Pv+fBjILcGz0s7U/LYIZaiHwmat3j06Vj4a1J/1s96vXf++3BQ7yWGoSWwDo+NePEb5X9umB+MbY9NXvErkkydjhyrfFsflL/Yj5fQs6/vWpTfCsyM3z1P/rtXvdCKk5LOj/jk1XdotakmzbTHnn6FT5t3sZ+2FGzTOlP2dZ2BGQ77f/PW6C/oyf/pWo1aMHYG1sqjI9cvB37hSxpMETn2994+hMdX8cu1d7cdRv2F3jmdKntQC6A5r+N/ozQr/yrT0Ay0uPHfzqt4pU0uijB6p/Ki5ef2orxw6Pz5v+9xmAngvHl2r809/xyS/edmOg3xydLI+KUjLxWeBTte8cmyqfvp174YWfM/3f79MtRWgOhTPMBX//Dwna5APv8rZD5U9k4ZheeF8hMFX5oTjG/89mVv9/8bTV/30/LvhM9IjozJn4wh8T/P0fG+wMGI7p/dyTM1/9FpFJlj1++CvfNDpVPhTWtqx3X/zQT5j+H0gBUGhMiswcCSdChRWggr//40d+Zu3PAGNTlV947NPlvyIqyVUhMFn/82NT5eNr3Rs/ulxXAAzolEARmSNh5aegH8z4wi9eu9VngP/5kUPVvycaybOxHy1vG52u/MYH3SNhJ41nyGCGpkB5mv4vNGYE/eDGR2fe82D76sh05Z+Ov9T6BpEIH/pQWPMyOlPeF98bv3PjPtn5uaqDfwb5GaAYTYjEnFgqRYuCfnDj+368c0zv6FR59vED5T8uAuH9Rg5euWt0unIkrIn5waO+/w/2bIDmARGYlxmAYrQq6Ac3np6t/eboVPVviDxY3+PTVx/4kZ+p/zfPjgHOAMQvhSIvLzMAxei8oB/oKtunRB1s4iWl1Hzes2OgpwOeFHX5mQGwA2Cg7TajZ0UdbFw4rtazY6DjTVGXA90OgAJ+oO02GzMiDzb1kvKyZ8dAx2VRlwNhu4dg930NEl4AWKc04BH6w4i8zE+tNUcE+8DHqsiDTRQApeiC58aAP1Wert8n8rJ+YxUauwS7TluQ8BkAB5UNepSaj4q8jFsqNZ8T7AMfZZEHmyoAPDcGvhOgsVPkZf4TQLRHsA+6so4uiDxQACR7t1JzTORlfgbgrScF+6B3AUSnRR5spgBoXPLsGPRoPCjysj4DUIgeEuiD7rPdXBF5sKkZgLOeHQOeATjbukvkZdwrhdY9gn3g46jIg03NALzmuTHQURd1+amuBbyDNiCxHFhmnRL9KgDssR30zbVb1MHGhaLZs0OvEvpRABSi0wJ+cOP4meZ2UQebmAEoRhOeHQMdL4u63NxczRUBP9DDgB4SdbCJl5RiY4dnx0BPAzwi6nJzc0VHBf3gRlh4KepgEy8pZ6JHPDsG2gXweVFnes3o+WheFHGwOd1TS7UD9pmSnhcAr9fuFfQDawI0K+Jg81aK0UnPkMG0Kl9cbd0h4vJ1cxUFvsoazFTmfpbyVdGWM/FF3y/wVdZgpjLvs5SNXaItdwVA40HBb2sNJPo5Zctyv0dTC+D8TrGddwOorMFMZW63/50UZXm9uUqNw24ClTWYqcxtj5JnRVluC4Dmo24ClTWYqczpSaWv1+4VYTm1utr6cBwEl90IfRnPiDAwU5ngcVZ05ZxDN/oyLpv+h9740plr92sK5JAy+iBsU1suNi65IXxXg+S+qERHPFu8/dOfm2uPG6JH39SK0Xl7/6G3TpRad8f31xXPmF69pDTHRBVt3bUA59wYtv5BUtkSaIEyfbu5HL9pWg2Sy+dKx5PT1yIgOuUG2Upl3RwRRdDHZ1Qp2u1Zs6VxTBRxi5tLXwDTapBcPlduadTDjgpRxBqzAM1X3Si30fXPtBoMxFLprSc9c25n21/jsOhhTa8UWvcsl6ILbpjN3FjN50UODPJFJTrq2bOpGcriK19u3Sly2MDN1e6/XXbjbGDbXylaFDEwWOFTQPjs5hm0kdG4FF7sRA2bKQLsClh3y1902p5/GI7QG8A5Aet/9186Ez0iWriNIsC+21uP5kVVNQzX8VLjAbOV+pLQtyIgetmN9L5RtugPElIEnGluDwtxPZfel/xnRAdbEhaOhAUkbqh3ffcvNJ4SGZCgF5VS83nPpvck/xNhnYTIYOtFQNgZoAPXjWY/B0QEJE9YkOsZ1R5vWvFPz4uAnM8ENJeK0YRIgAQXAYXGZM5X/L8m+dOfIiAOrNBKMoc31mWnZ0E6hIVvuVwYWGocNu1P/2+wfO0OOKd9JqTL8Teih3P02bIZzkhw1RlgEdDuE1DO+kIa02mQ0hnLsHapEJ3OepOfcIaLq80wioAHM9s2uNCYMZ0G6dY5Qjizny3PLr1eu9dVZrhVdqYOEIoras0zIFOWSs3n4vv7Smam/AvRrNlJknODnYkeiQNzNcU31ZWwxU9rX8imlbOtu1aK0ZHQHje1PUiKzZXQ/dDVJJG6awPSdF53MzwUtPWFfAiLelPXM6AQnY5fUEZcPRIvfDsPq1JTsAr3ZSv8IaczAoXooaSfKNg57Kixw9UidToLcMKWwUQVAuGN/2TYJuQKAaHHR+J2C5SiC6HxmIXIZELYqhJW1g/p+M56+HYWJ/494QhRVwO4WVhRHz8rnunOCgzjcKGzYR2Sg8bItDDt3m0mdKqf3fs63/kaOyzsAzaj3fW001Hw5T72O2nPRsYJ/1nb+cjnjdY5Y2DPUjF6sbud8FS3t8BGK/DL4fCLcCOFhB8q6DDbYOoM6IXwAtH5TNCY6S4eXO0udN7otsJ695kW/r6X2zsR4uIi7Erw04VbCNP1odlQ++YrRbvDN7GVYmNnSPArp+v3SfLA0IuD+FkUVuiHY8LDMyo8q8Kvw3Y9SR4AAAAAoG8m5qsPTyzUnto7V3t2fL42E/96ce9CbTX+83PxuBKPy+Pz9TfH56snO/9fdTL+82f2ztd27psrP+gnCAAp8PHF1h3jc9Unx+fqs53kXmttcVyMx5GJufrYwYPWnABAgpL+lbv2ztd3xW/tr8bJutyDpH+rcXl8rnYszA6EQsNPHgCG9ba/UN/fncpvDXhcGp+rTpgVAIABCUl3fK6+u52EB5/4bx7nJxaqerUDQD+FZNtdwNdK0phYqJ3eN1sfcYUAoIc+sVi5Z3y+/lrSEv/7xlzt2Ce+0LrTFQOALQrb8eLkeiHxyf9rRcDZp2f1dgeA29ad8i+nJvm/e5HgfP1RVxAANqm7wr+V4tEMixVdSQDYgPYq//nayylP/u9eIHjYVQWAdYSWvFlJ/l8b9QOuLADcQrdnfyuLQ78AAPig5L9Q2d7+bp7RAiAsZty7WHnIlQaArvHFxgMpXe2/6cOFQk8DVxyA3AuH+SSxu18fxylnCADg7T9DK/43MWZceQByK3wTz2HyD6PuUwAA+S0AFmqrOS0AWmG7owgAIIfJv73qv5Xj0QznHIgEAHKj3e1vrnY25wVAa2K+dkI0AJAboUd+3pP/jbFvtj4iIgDIRwEwXzsv+d8Y1ZMiAoDMm5ivPizp3zReunq3yAAg0/YuVCcl/ZvXAtT3iAwAMm18vv6mpG8xIAA5smfu2v0S/i0aA32hdacIASCTsnzcr+OCAeAWwkE4kv0txlztmAgBIHPazX/ma03J/pbjgigBIHP2Ldbvk+TXHqIEgMwZn68/KsmvPZ6erd0rUgDIlL3ztZ2S/LonBD4sUgDI2AxA9RlJfr2FgNUnRQoA2ZoB0AFQR0AA8mdivrooya836gdECgAZmwGorUrw664BWBQpAGSrAJivvSrJr9cNsHZYpACQKeMLtRcl+XXHcyIFgIwVAPX9EvzaY+98fZdIASBbBcBcfbckv/bYN1sfESkAZMrEXH1Mkl97hOOSRQoA2ZoBWGw8IMmvPT6+2LpDpACQKR9fvHKXJL/muCJKAMjmLMB87aJEf8txSoQAkNUC4IhEf4sdAHO1Z0UIAJlkIaAFgADk0MGDrQ+Hb90S/vvOAHhTdACQaeNztWMS/k3T/wvVSZEBQKbtna/tlPTfdwjQwyIDgEz7xBdad8ZJry7xvzMuigoAcjILUD8q8Xff/udqz4sIAPIxC7BYuSdOfmUFQO2i7n8A5Mr4fP1A7guAufpukQBArnRbA1/K89a/sC1SJACQw1mA6jP5ffuvPikCAMilbmOg8/nb919bdfUByLVue+BmjgqA8r658oOuPAC5l6tPAab+AeBdRcBcfTbzyX+hvt+VBoB3CesBwrfx7L751465ygDwAboNgi5ksAAohhbIrjAA3EJYIBcnzMsZSv4XQmHjygLAOvbMXbs/TpznMpD8T0n+ALAJYcp8Yr52IsVtfmd1+gOA29BtFDSTsuTf3DtXe9bVA4AtCofmxIm1noLkf2XvQmW7KwYAPRIWByb5k8DEfHVx32L9PlcKAPpRCMzWR8K2uuQk/+rJvYuVh1wZABiAiYXaU0M9SGiudjacY+BKAMCAtRcJzlUnwna7QS3wC2/8ofjw0weABBh/6erdE/P1Pd11Ar1cMFiOx8t75+u7dPMDgARr9xBYqO6Ik/bR7vkC57uJfN1V/J0GRNWT4wu1F8MU/8cXW3f4iQJAyguD0GUwLCQMb/RhKj/8eVi9L9EDAAAAAAAAAAAAAAAAAAAAAAAAAAAAAAAAAAAAAAAAAAAAAAAAAAAAAAAAAAAAAAAAAAAAAAAAAAAAAAAAAAAAAAAAAAAAAAAAAAAAAAAAAAAAAAAM0/8HhIF5d/6LyCUAAAAASUVORK5CYII=;" vertex="1" parent="91">
                    <mxGeometry x="6.5" y="4.5" width="51" height="51" as="geometry"/>
                </mxCell>
            </root>
        </mxGraphModel>
    </diagram>
</mxfile>